<svg width="512" height="512" viewBox="0 0 512 512" fill="none" xmlns="http://www.w3.org/2000/svg">
<rect width="512" height="512" fill="#FFCF20"/>
<path d="M120.2 148.48L152.587 233.71H129.454L108.171 173.218H106.937L90.5863 218.261H110.021V233.71H61.4399L95.0614 148.48H120.2Z" fill="black"/>
<path d="M185.57 208.071C185.57 213.98 191.722 218.887 199.315 218.887H209.003C216.596 218.887 222.748 213.98 222.748 208.071V148.48H242.779V208.972C242.779 222.592 228.509 233.71 210.573 233.71H197.875C180.071 233.71 165.409 222.592 165.409 208.972V148.48H185.57V208.071Z" fill="black"/>
<path d="M331.909 164.204H305.931V233.71H281.252V164.204H255.599V148.48H331.909V164.204Z" fill="black"/>
<path d="M385.295 148.48C403.23 148.48 417.5 159.598 417.5 173.218V208.971C417.5 222.592 403.23 233.709 385.295 233.709H372.597C354.792 233.709 340.13 222.592 340.13 208.971V173.218C340.13 159.598 354.792 148.48 372.597 148.48H385.295ZM374.036 163.302C366.443 163.302 360.291 168.21 360.291 174.119V208.071C360.291 213.98 366.443 218.887 374.036 218.887H383.725C391.317 218.887 397.469 213.979 397.47 208.071V174.119C397.469 168.21 391.317 163.303 383.725 163.302H374.036Z" fill="black"/>
<path d="M259.647 363.52H230.752L204.161 286.863H202.619L182.197 342.96H206.471V363.52H146.746L171.559 295.808L187.788 253.198H219.189L259.647 363.52ZM158.716 274.88H98.5246C92.346 274.881 89.2587 277.98 89.2584 284.173V333.733C89.2589 336.106 89.9277 338.017 91.2665 339.462C92.7085 340.803 94.5115 341.476 96.674 341.477H134.303L126.264 363.389C115.189 363.285 99.7724 363.152 90.8006 363.152C80.7049 363.152 73.286 360.781 68.5471 356.032C63.8085 351.283 61.4404 343.849 61.4399 333.733V284.173C61.4401 273.333 63.8627 265.485 68.7046 260.633C73.6498 255.678 81.533 253.198 92.3493 253.198H166.663L158.716 274.88Z" fill="url(#paint0_linear_30590_52524)"/>
<path d="M301.31 274.881H277.03L297.456 332.708H298.998L325.585 253.2H354.485L314.026 363.517H282.621L242.377 253.2H301.31V274.881Z" fill="black"/>
<path d="M449.084 363.516H420.185L393.597 286.861H392.056L373.362 342.961H397.641V363.516H336.952L377.221 253.2H408.625L449.084 363.516Z" fill="black"/>
<defs>
<linearGradient id="paint0_linear_30590_52524" x1="4.32057" y1="233.037" x2="256.325" y2="367.43" gradientUnits="userSpaceOnUse">
<stop stop-color="#0090FF"/>
<stop offset="0.235577" stop-color="#6000FF"/>
<stop offset="0.533654" stop-color="#DF00FF"/>
<stop offset="0.700267" stop-color="#FF007E"/>
<stop offset="1" stop-color="#FF5E00"/>
</linearGradient>
</defs>
</svg>
