<svg xmlns="http://www.w3.org/2000/svg" width="16" height="16" fill="none" viewBox="0 0 16 16"><circle cx="8" cy="8" r="8" fill="#f8f8f8"/><path fill="#000" d="M3.766 5.2 4.629 7.471H4.013L3.445 5.859H3.413L2.977 7.06H3.495V7.471H2.2L3.096 5.2H3.766ZM5.508 6.788C5.508 6.946 5.672 7.076 5.875 7.076H6.133C6.335 7.076 6.499 6.946 6.499 6.788V5.2H7.033V6.812C7.033 7.175 6.653 7.471 6.175 7.471H5.836C5.362 7.471 4.971 7.175 4.971 6.812V5.2H5.508V6.788ZM9.408 5.619H8.716V7.471H8.058V5.619H7.375V5.2H9.408V5.619Z"/><path fill="#222" d="M11.9752 5.19995C13.2038 5.19995 14.1998 6.19769 14.1999 7.42847C14.1999 8.44592 13.5185 9.30117 12.5885 9.56812L12.1667 8.43823C12.6422 8.3484 13.0026 7.931 13.0026 7.42847C13.0026 6.86042 12.5423 6.40015 11.9752 6.40015C11.4083 6.40025 10.9489 6.86049 10.9489 7.42847C10.9489 7.44188 10.9503 7.45522 10.9508 7.46851H9.75259C9.75236 7.45519 9.75064 7.44184 9.75064 7.42847C9.75066 6.19775 10.7467 5.20005 11.9752 5.19995Z"/><path fill="#222" d="M11.8517 7.01208C11.7698 7.0364 11.6944 7.08536 11.6368 7.15718C11.6235 7.17378 11.6131 7.19216 11.6026 7.20996L10.9932 6.82558L10.8622 7.36796L11.5456 7.37944C11.529 7.52327 11.5823 7.67241 11.7034 7.76964C11.826 7.86808 11.9852 7.88684 12.1229 7.83703L12.3354 8.52346L12.8014 8.21655L12.2797 7.73824C12.2915 7.72652 12.3042 7.71534 12.3148 7.70203C12.3921 7.60547 12.421 7.48587 12.4059 7.37218L13.099 7.38311L12.9727 6.83856L12.3455 7.20147C12.32 7.16002 12.2874 7.1218 12.2473 7.08962C12.1887 7.04265 12.1216 7.01418 12.0526 7.00177L12.2528 6.40268L11.6944 6.40374L11.8517 7.01208Z"/><path fill="#ffc422" d="M10.9494 6.6001C11.4032 6.03296 12.2308 5.94165 12.797 6.396C13.3629 6.85067 13.4546 7.67942 13.0011 8.24658C12.808 8.48801 12.5463 8.64093 12.2668 8.70459L12.216 8.56787C12.2959 8.55099 12.375 8.52904 12.4504 8.49561L12.0685 7.63525C11.9935 7.66919 11.9029 7.66275 11.8341 7.60791C11.7655 7.55275 11.7385 7.46512 11.755 7.38428L10.8205 7.23096C10.8075 7.30953 10.8048 7.38922 10.8078 7.46826H10.6632C10.6526 7.16452 10.7449 6.85577 10.9494 6.6001ZM12.1896 7.35498C12.2143 7.42615 12.2038 7.50853 12.1535 7.57178C12.1461 7.58101 12.1365 7.5894 12.1281 7.59717L12.7384 8.31201C12.792 8.26575 12.843 8.21495 12.8888 8.15771L12.8986 8.14502C13.0986 7.88825 13.1745 7.57322 13.1359 7.27295L12.1896 7.35498ZM11.7941 6.26514C11.5155 6.30878 11.251 6.45213 11.0607 6.68994L11.0519 6.70068C11.0016 6.76517 10.9588 6.83413 10.924 6.90479L11.7795 7.31787C11.7852 7.3077 11.7915 7.29702 11.799 7.2876C11.8298 7.24916 11.8711 7.22274 11.9152 7.21045L11.7941 6.26514ZM11.9826 7.20361C12.03 7.20507 12.0775 7.22146 12.1173 7.25342C12.1334 7.26639 12.1487 7.28041 12.1603 7.29639L13.0461 6.94775C12.9745 6.78567 12.8655 6.63713 12.7199 6.51709L12.7082 6.5083C12.5372 6.37101 12.3392 6.28929 12.1369 6.26123L11.9826 7.20361Z"/><path fill="#000" d="M7.48223 10.9314H6.7127L6.00371 8.88843H5.9627L5.41875 10.3835H6.06523V10.9314H4.47344L5.14336 9.10327L5.56719 7.99097H6.4041L7.48223 10.9314ZM8.59258 8.56909H7.94609L8.49004 10.1101H8.53105L9.24004 7.99097H10.0105L8.93145 10.9314H8.09453L7.02227 7.99097H8.59258V8.56909ZM12.5311 10.9314H11.7615L11.0525 8.88843H11.0115L10.5135 10.3835H11.16V10.9314H9.54277L10.616 7.99097H11.4529L12.5311 10.9314ZM4.79277 8.56909H3.18828C3.02375 8.56916 2.94129 8.6513 2.94121 8.81616V10.1375C2.94128 10.2006 2.95929 10.2513 2.99492 10.2898C3.03336 10.3256 3.0818 10.3435 3.13945 10.3435H4.14238L3.92754 10.9285C3.63237 10.9257 3.2213 10.9216 2.98223 10.9216C2.71331 10.9216 2.51571 10.8577 2.38945 10.7312C2.26328 10.6047 2.20005 10.4068 2.2 10.1375V8.81616C2.20004 8.52752 2.26447 8.31851 2.39336 8.18921C2.52515 8.05714 2.73592 7.99097 3.02422 7.99097H5.00371L4.79277 8.56909Z"/></svg>