<svg xmlns="http://www.w3.org/2000/svg" width="41" height="40" fill="none" viewBox="0 0 41 40"><path fill="#ffc422" stroke="#222" stroke-width="0.5" d="M20.0025 5.25C22.6585 5.25396 25.307 5.51668 27.3784 6.0332C28.4148 6.29166 29.297 6.61174 29.9605 6.9873C30.6283 7.36538 31.044 7.78214 31.2036 8.2207C31.5244 9.10139 31.8449 9.98242 32.1626 10.8643L33.1079 13.5137C33.2958 14.0472 33.552 14.428 33.8511 14.7168C34.1479 15.0035 34.4775 15.1906 34.7935 15.3477C35.4419 15.6698 35.995 15.8616 36.3863 16.459C36.5026 16.6366 36.6227 17.0097 36.731 17.5293C36.8367 18.0363 36.925 18.6467 36.9956 19.2686C37.137 20.5134 37.2051 21.7842 37.2036 22.333C37.2006 23.4336 37.2083 27.527 37.2007 28.624C37.1912 30.0744 37.1734 31.5663 37.2007 32.7168C37.2142 33.2971 37.2083 33.8803 37.2007 34.4658C37.1956 34.859 37.0825 35.1323 36.9185 35.3057C36.7561 35.4774 36.5176 35.5783 36.2036 35.5791C34.8154 35.5827 32.427 35.5827 31.0386 35.5791C30.7224 35.5783 30.5101 35.4801 30.3716 35.3184C30.2274 35.15 30.1318 34.8766 30.1265 34.4697V34.4688C30.1227 34.1854 30.1226 33.6189 30.1236 33.1211C30.124 32.8725 30.1249 32.6413 30.1255 32.4727C30.1258 32.3884 30.1253 32.3192 30.1255 32.2715C30.1256 32.2479 30.1264 32.2293 30.1265 32.2168V31.75H29.8765C23.3822 31.75 16.6199 31.6935 10.1216 31.75L9.87357 31.752V32L9.87454 32.4639V32.5322C9.87477 32.5757 9.87517 32.6391 9.87552 32.7158C9.87622 32.8692 9.87695 33.0787 9.87747 33.3037C9.87852 33.7553 9.87842 34.265 9.87357 34.5098C9.86636 34.8821 9.76939 35.1478 9.62552 35.3164C9.4862 35.4796 9.28138 35.5776 8.99857 35.5791C7.58547 35.5845 5.17323 35.5845 3.76028 35.5791C3.47115 35.578 3.2476 35.4805 3.09329 35.3145C2.93703 35.1462 2.828 34.8824 2.81985 34.5088C2.80707 33.9126 2.81005 33.3145 2.81985 32.7158C2.83982 31.6223 2.8416 30.1878 2.81204 28.8125C2.78486 27.5404 2.79774 23.265 2.80911 21.9863C2.81322 21.5312 2.88589 20.3515 3.01517 19.1904C3.07974 18.6106 3.15825 18.0405 3.24759 17.5713C3.29225 17.3367 3.3388 17.1306 3.38724 16.9629C3.4121 16.8768 3.43665 16.8046 3.4595 16.7461L3.52298 16.6104C3.96637 15.8842 4.59508 15.5627 5.24857 15.2002C5.85391 14.8644 6.48282 14.4903 6.82376 13.6914L6.88821 13.5264C7.51735 11.7434 8.16118 9.96849 8.80521 8.19043C8.96448 7.75171 9.37882 7.33453 10.0464 6.95801C10.7096 6.58404 11.5913 6.26728 12.6275 6.01172C14.6985 5.50094 17.3464 5.24606 20.0025 5.25Z"/><path fill="#fff" stroke="#222" stroke-width="0.5" d="M20.5 7.75C24.7398 7.75 26.9604 8.12452 28.1123 8.48828C28.6872 8.66983 28.9855 8.84609 29.1348 8.96289C29.2088 9.02085 29.2454 9.06317 29.2607 9.08398C29.2649 9.08968 29.267 9.09422 29.2686 9.09668L31.6865 15.3818C31.6135 15.4161 31.5162 15.46 31.3896 15.5088C31.0285 15.648 30.4348 15.8368 29.5205 16.0254C27.6908 16.4027 24.5833 16.7772 19.501 16.75C14.8729 16.7252 12.0159 16.3515 10.3223 15.9873C9.47572 15.8052 8.92108 15.6255 8.58203 15.4941C8.46944 15.4505 8.38119 15.4112 8.31348 15.3799L10.6943 9.18848C10.7098 9.18214 10.7277 9.1757 10.7471 9.16797C10.846 9.12851 10.9962 9.07082 11.1982 9.00195C11.6026 8.86414 12.2142 8.67961 13.0352 8.49414C14.6775 8.12317 17.1594 7.75 20.5 7.75Z"/><path stroke="#222" stroke-width="0.5" d="M6 14.833C6 14.833 10 16.833 20 16.833C30 16.833 34 14.833 34 14.833"/><path fill="#ffc422" stroke="#222" stroke-width="0.5" d="M33.213 12.681C33.606 12.645 34.14 12.621 34.706 12.66 35.863 12.741 37.04 13.083 37.532 14.024 37.566 14.089 37.565 14.134 37.55 14.177 37.531 14.231 37.481 14.301 37.382 14.384 37.183 14.551 36.858 14.707 36.487 14.842 36.123 14.974 35.739 15.077 35.445 15.148 35.299 15.183 35.175 15.21 35.089 15.228 35.072 15.231 35.057 15.234 35.043 15.237L33.428 14.315 32.868 12.72C32.964 12.708 33.08 12.693 33.213 12.681ZM6.758 12.646C6.365 12.611 5.831 12.586 5.265 12.625 4.108 12.706 2.931 13.048 2.438 13.989 2.405 14.053 2.405 14.099 2.421 14.144 2.441 14.199 2.492 14.271 2.593 14.355 2.795 14.525 3.126 14.685 3.5 14.824 3.868 14.961 4.256 15.069 4.553 15.143 4.7 15.18 4.824 15.208 4.911 15.226 4.927 15.23 4.942 15.233 4.955 15.235L6.542 14.283 7.103 12.685C7.007 12.673 6.891 12.658 6.758 12.646ZM8.821 26.875C8.004 26.875 7.168 26.844 6.488 26.752 6.148 26.706 5.855 26.647 5.625 26.571 5.388 26.493 5.251 26.409 5.189 26.337 5.004 26.12 4.847 25.809 4.718 25.447 4.59 25.088 4.494 24.695 4.424 24.328 4.354 23.962 4.31 23.625 4.284 23.38 4.28 23.34 4.277 23.302 4.273 23.267 4.353 23.272 4.449 23.276 4.557 23.285 4.91 23.314 5.403 23.364 5.957 23.451 7.073 23.628 8.409 23.951 9.371 24.528 9.581 24.654 9.838 24.876 10.113 25.15 10.385 25.422 10.663 25.734 10.914 26.031 11.152 26.314 11.364 26.581 11.521 26.783 11.378 26.792 11.207 26.802 11.014 26.813 10.427 26.844 9.637 26.875 8.821 26.875Z"/><path fill="#222" d="M5 26L4.5 23.5H7L9 24.5L5 24V26Z"/><path fill="#ffc422" stroke="#222" stroke-width="0.5" d="M31.1787 26.875C31.9959 26.875 32.8316 26.8435 33.5117 26.752C33.8518 26.7061 34.1453 26.6466 34.375 26.5713C34.6123 26.4934 34.7488 26.4089 34.8105 26.3369C34.9963 26.12 35.1531 25.8087 35.2822 25.4473C35.4104 25.0884 35.5062 24.6954 35.5762 24.3281C35.646 23.9617 35.6896 23.6251 35.7158 23.3799C35.7201 23.3396 35.7232 23.3016 35.7266 23.2666C35.6467 23.2717 35.5515 23.2764 35.4434 23.2852C35.0896 23.3137 34.597 23.3636 34.043 23.4512C32.9267 23.6277 31.5908 23.9512 30.6289 24.5283C30.4189 24.6543 30.1615 24.8758 29.8867 25.1504C29.6148 25.422 29.3366 25.7341 29.0859 26.0312C28.8477 26.3137 28.6363 26.581 28.4795 26.7832C28.6219 26.7923 28.793 26.8022 28.9863 26.8125C29.5729 26.8436 30.3631 26.875 31.1787 26.875Z"/><path fill="#222" d="M35 26 35.5 23.5H33L31 24.5 35 24V26ZM3.5 17C3.5 17 3.66 17.222 3.932 17.58 4.525 18.216 5.897 19.367 9 21 14 22.5 26 22.5 31 21 34.103 19.367 35.475 18.216 36.068 17.58 36.34 17.222 36.5 17 36.5 17 36.5 17 36.426 17.196 36.068 17.58 35.277 18.617 33.538 20.796 32 22 29.932 23.62 10.068 23.62 8 22 6.462 20.796 4.723 18.617 3.932 17.58 3.574 17.196 3.5 17 3.5 17ZM4.5 30.5C3.351 29.734 3 28 3 28V34.5C3 35.052 3.448 35.5 4 35.5H9C9.552 35.5 10 35.052 10 34.5V31.5C10 31.5 6.041 31.528 4.5 30.5ZM35.5 30.5C36.649 29.734 37 28 37 28V34.5C37 35.052 36.552 35.5 36 35.5H31C30.448 35.5 30 35.052 30 34.5V31.5C30 31.5 33.959 31.528 35.5 30.5ZM15 27 13 31.5 15.5 28H24.5L27 31.5 25 27H15Z"/><path fill="#fff" stroke="#f8f8f8" d="M39 26.5C39.5523 26.5 40 26.9477 40 27.5V35.5C40 36.0523 39.5523 36.5 39 36.5H15C14.4477 36.5 14 36.0523 14 35.5V27.5C14 26.9477 14.4477 26.5 15 26.5H39Z"/><path stroke="#222" stroke-width="0.5" d="M39 26.75C39.4142 26.75 39.75 27.0858 39.75 27.5V35.5C39.75 35.9142 39.4142 36.25 39 36.25H15C14.5858 36.25 14.25 35.9142 14.25 35.5V27.5C14.25 27.0858 14.5858 26.75 15 26.75H39Z"/><path fill="#000" d="M15.6719 34.5V28.8125H16.5117L19.2305 32.8047C19.2826 32.8828 19.3346 32.9714 19.3867 33.0703C19.4388 33.1667 19.4805 33.2474 19.5117 33.3125H19.5508C19.5456 33.2344 19.5404 33.1276 19.5352 32.9922C19.5299 32.8542 19.5273 32.7461 19.5273 32.668V28.8125H20.293V34.5H19.4492L16.7148 30.4805C16.6602 30.4023 16.6094 30.3242 16.5625 30.2461C16.5182 30.168 16.4805 30.0964 16.4492 30.0312H16.4102C16.4154 30.1094 16.4206 30.1979 16.4258 30.2969C16.431 30.3932 16.4336 30.4805 16.4336 30.5586V34.5H15.6719ZM21.5 32.9258V30.2461H22.2734V32.9336C22.2734 33.2852 22.3542 33.5365 22.5156 33.6875C22.6797 33.8385 22.9128 33.9141 23.2148 33.9141C23.4674 33.9141 23.6901 33.849 23.8828 33.7188C24.0755 33.5859 24.2279 33.4154 24.3398 33.207V30.2461H25.1172V34.5H24.4102L24.3789 33.9336H24.3594C24.1927 34.1393 23.9909 34.2982 23.7539 34.4102C23.5195 34.5221 23.2591 34.5781 22.9727 34.5781C22.5247 34.5781 22.1667 34.4518 21.8984 34.1992C21.6328 33.944 21.5 33.5195 21.5 32.9258ZM26.0273 32.4336V32.3086C26.0273 31.668 26.2109 31.1445 26.5781 30.7383C26.9479 30.332 27.4349 30.1289 28.0391 30.1289C28.6484 30.1289 29.1159 30.319 29.4414 30.6992C29.7695 31.0794 29.9336 31.5924 29.9336 32.2383V32.5664H26.5078V31.9453H29.1484V31.957C29.1484 31.6159 29.0638 31.3333 28.8945 31.1094C28.7279 30.8828 28.4427 30.7695 28.0391 30.7695C27.6406 30.7695 27.3359 30.918 27.125 31.2148C26.9167 31.5117 26.8125 31.8763 26.8125 32.3086V32.4336C26.8125 32.8659 26.9219 33.2318 27.1406 33.5312C27.362 33.8281 27.7031 33.9766 28.1641 33.9766C28.4479 33.9766 28.6914 33.9193 28.8945 33.8047C29.1003 33.6901 29.2656 33.5534 29.3906 33.3945L29.8906 33.8164C29.7526 34.0143 29.5352 34.1979 29.2383 34.3672C28.944 34.5339 28.5859 34.6172 28.1641 34.6172C27.474 34.6172 26.9453 34.4141 26.5781 34.0078C26.2109 33.6016 26.0273 33.0768 26.0273 32.4336ZM30.2344 30.2461H31.0078L32.0508 33.0469C32.0898 33.1536 32.1237 33.2526 32.1523 33.3438C32.181 33.4323 32.2044 33.5286 32.2227 33.6328H32.2461C32.2643 33.5286 32.2878 33.4323 32.3164 33.3438C32.3477 33.2526 32.3828 33.1536 32.4219 33.0469L33.457 30.2461H34.1953L32.5312 34.5H31.8984L30.2344 30.2461ZM34.457 32.4336V32.3086C34.457 31.668 34.6471 31.1445 35.0273 30.7383C35.4102 30.332 35.9193 30.1289 36.5547 30.1289C37.1927 30.1289 37.7018 30.332 38.082 30.7383C38.4648 31.1445 38.6562 31.668 38.6562 32.3086V32.4336C38.6562 33.0768 38.4648 33.6016 38.082 34.0078C37.7018 34.4141 37.1927 34.6172 36.5547 34.6172C35.9193 34.6172 35.4102 34.4141 35.0273 34.0078C34.6471 33.6016 34.457 33.0768 34.457 32.4336ZM35.25 32.3086V32.4336C35.25 32.8633 35.3594 33.2266 35.5781 33.5234C35.7969 33.8203 36.1224 33.9688 36.5547 33.9688C36.9896 33.9688 37.3164 33.8203 37.5352 33.5234C37.7539 33.2266 37.8633 32.8633 37.8633 32.4336V32.3086C37.8633 31.8815 37.7539 31.5195 37.5352 31.2227C37.3164 30.9258 36.9896 30.7773 36.5547 30.7773C36.1224 30.7773 35.7969 30.9258 35.5781 31.2227C35.3594 31.5195 35.25 31.8815 35.25 32.3086Z"/></svg>