<svg xmlns="http://www.w3.org/2000/svg" width="80" height="80" fill="none" viewBox="0 0 80 80"><path fill="#e6e6e6" d="M43.4351 68.2078C43.4351 68.2078 43.4109 73.1076 43.3912 77.1029C32.3716 76.7967 4.09975 70.4128 4.18784 67.2433C4.27592 64.0739 12.6221 61.6083 23.6417 61.9146C34.6614 62.2208 43.4351 68.2078 43.4351 68.2078Z"/><path fill="#fff" stroke="#000" d="M44.9128 77.2671L11.2916 69.5381C10.8223 69.4302 10.4965 69.0031 10.5165 68.5219L11.652 41.2704C11.6693 40.8556 11.9411 40.4947 12.3349 40.3634L30.6411 34.2613C30.7858 34.2131 30.9397 34.1986 31.0909 34.219L65.5705 38.8679C66.0614 38.9341 66.4298 39.3496 66.4368 39.8449L66.8151 66.7051C66.8207 67.0998 66.5936 67.4609 66.2354 67.6267L45.557 77.2C45.3556 77.2932 45.129 77.3168 44.9128 77.2671Z"/><path fill="#f8f8f8" stroke="#000" d="M44.0365 77.0657L11.2916 69.5381C10.8223 69.4302 10.4965 69.0031 10.5165 68.5219L11.652 41.2704C11.6693 40.8556 11.9411 40.4947 12.3349 40.3634L30.6411 34.2613C30.7858 34.2131 30.9397 34.1986 31.0909 34.219L61.8881 38.3714C62.952 38.5149 63.0731 40.0056 62.0463 40.3189L46.3107 45.1198C45.894 45.247 45.6075 45.6293 45.6026 46.0649L45.2605 76.1025C45.2532 76.7405 44.6584 77.2087 44.0365 77.0657Z"/><path stroke="#000" d="M45.2463 77.3438L45.6459 45.7761"/><path fill="#ffc422" d="M15.6765 40.9811L31.2606 35.7864L64.4266 39.3827L45.2463 45.3766L15.6765 40.9811Z"/><path fill="#fff" stroke="#000" d="M39.581 58.218 45.246 45.377 12.373 40.681C11.957 40.621 11.549 40.828 11.35 41.198L6.314 50.599C6 51.185 6.336 51.909 6.986 52.049L38.457 58.792C38.92 58.892 39.39 58.652 39.581 58.218ZM52.809 56.797 45.654 45.5 65.413 39.179C65.786 39.06 66.194 39.169 66.458 39.458L74.237 48.012C74.711 48.533 74.512 49.368 73.854 49.619L54.01 57.196C53.566 57.366 53.063 57.199 52.809 56.797Z"/><path stroke="#222" stroke-linecap="round" d="M49.4285 3.17578L47.9443 7.66667"/><path stroke="#000" stroke-linecap="round" stroke-opacity="0.2" d="M49.4285 3.17578L47.9443 7.66667"/><path stroke="#222" stroke-linecap="round" d="M58.1385 12.8438L51.9441 14.3333"/><path stroke="#000" stroke-linecap="round" stroke-opacity="0.2" d="M58.1385 12.8438L51.9441 14.3333"/><path stroke="#222" stroke-linecap="round" d="M57.2677 4.09546L50.8344 10.4055"/><path stroke="#000" stroke-linecap="round" stroke-opacity="0.2" d="M57.2677 4.09546L50.8344 10.4055"/><path stroke="#000" stroke-linecap="round" d="M63.818 27.568 66.965 24.421M66.965 27.568 63.818 24.421M2.851 57.828 5.998 54.681M5.998 57.828 2.851 54.681"/><path fill="#ffc422" stroke="#222" stroke-width="0.6" d="M39.8933 30.2988H41.9041C42.295 30.299 42.6091 30.615 42.6091 31.002V33.001C42.609 33.1857 42.5349 33.363 42.4031 33.4941C42.271 33.6254 42.0915 33.7001 41.9041 33.7002H39.8933C39.7057 33.7002 39.5255 33.6255 39.3933 33.4941C39.2616 33.363 39.1874 33.1856 39.1873 33.001V31.002C39.1873 30.6149 39.5022 30.2988 39.8933 30.2988ZM40.614 10.2998C42.9546 10.2998 44.8743 10.8624 46.3962 11.9707V11.9717C47.8864 13.0562 48.6443 14.6647 48.6443 16.8457C48.6442 18.1776 48.3159 19.2822 47.6707 20.1709L47.6677 20.1748C47.2932 20.7114 46.5511 21.4239 45.4109 22.3164L44.2859 23.1973C43.6335 23.7088 43.1842 24.3131 42.9607 25.0215L42.9578 25.0303L42.9558 25.04C42.8741 25.3745 42.8235 25.716 42.8035 26.0596C42.788 26.2333 42.7069 26.3955 42.5769 26.5137C42.447 26.6317 42.277 26.6973 42.1003 26.6973H39.8484C39.7501 26.6974 39.6531 26.677 39.5632 26.6377C39.4733 26.5983 39.392 26.5406 39.3259 26.4688C39.2601 26.397 39.2105 26.3124 39.1794 26.2207C39.1561 26.1517 39.1433 26.0793 39.1423 26.0068L39.1453 25.9346C39.2098 25.2432 39.2763 24.6816 39.3445 24.25C39.4138 23.8114 39.4814 23.5284 39.5417 23.3789L39.5427 23.3779C39.7563 22.841 40.2828 22.2031 41.1726 21.4541L41.5769 21.126L42.7341 20.2148L42.7332 20.2139C42.9181 20.0733 43.5212 19.6457 44.074 19.1006C44.3527 18.8258 44.6285 18.513 44.8357 18.1816C45.0412 17.8529 45.1941 17.4822 45.1941 17.0996C45.1941 16.4774 45.1398 16.019 44.991 15.6221C44.8407 15.2215 44.6038 14.9088 44.2869 14.5645H44.2859C43.9177 14.1665 43.3493 13.928 42.7488 13.7861C42.1406 13.6424 41.4581 13.5879 40.8191 13.5879C39.5629 13.5879 38.3742 13.9136 37.7771 14.8721C37.5286 15.2676 37.326 15.6904 37.1746 16.1318L37.1736 16.1367C37.1042 16.3514 37.0506 16.5713 37.0144 16.7939C36.9863 16.9558 36.902 17.1035 36.7751 17.21C36.6482 17.3164 36.4867 17.3748 36.3201 17.375H33.95C33.8504 17.375 33.7517 17.3539 33.6609 17.3135C33.5701 17.2731 33.4887 17.2142 33.4226 17.1406C33.3566 17.0671 33.307 16.9804 33.2771 16.8867C33.2472 16.7931 33.2376 16.6942 33.2488 16.5967C33.2732 16.384 33.3006 16.202 33.325 16.0596C33.7049 13.9547 34.6588 12.4353 36.1726 11.4697L36.1746 11.4678C37.3648 10.695 38.8383 10.2998 40.614 10.2998Z"/><path fill="#fff" stroke="#222" stroke-width="0.8" d="M37.8933 30.3994H39.9041C40.2399 30.3996 40.5085 30.6704 40.5085 31.002V33.001C40.5084 33.159 40.4459 33.3113 40.3328 33.4238C40.2195 33.5364 40.0652 33.5995 39.9041 33.5996H37.8933C37.7322 33.5996 37.5779 33.5363 37.4646 33.4238C37.3514 33.3113 37.288 33.1591 37.2878 33.001V31.002C37.2878 30.6703 37.5573 30.3994 37.8933 30.3994ZM38.614 10.4004C40.7933 10.4004 42.5973 10.8911 44.0515 11.8535L44.3376 12.0518C45.7977 13.1143 46.5437 14.6909 46.5437 16.8457C46.5437 18.1605 46.2201 19.2428 45.5896 20.1113L45.5857 20.1182C45.2201 20.6419 44.4882 21.3469 43.3494 22.2383L42.2244 23.1182C41.559 23.6399 41.0966 24.2605 40.866 24.9912L40.8621 25.0039L40.8591 25.0166C40.7762 25.356 40.7244 25.7021 40.7039 26.0508C40.6906 26.1994 40.621 26.3381 40.5095 26.4395C40.3981 26.5407 40.2522 26.5977 40.1003 26.5977H37.8484C37.7639 26.5977 37.6805 26.5797 37.6033 26.5459C37.5261 26.5121 37.4568 26.463 37.4001 26.4014C37.3436 26.3398 37.3008 26.2672 37.2742 26.1885C37.2476 26.11 37.2374 26.0267 37.2449 25.9443C37.3093 25.254 37.3754 24.6944 37.4431 24.2656C37.5123 23.8276 37.5788 23.554 37.6345 23.416L37.6355 23.4141C37.8694 22.8265 38.5046 22.0956 39.6384 21.2051H39.6394L40.7908 20.2969C40.9684 20.1615 41.5822 19.7262 42.1443 19.1719C42.4261 18.894 42.7078 18.5748 42.9207 18.2344C43.1312 17.8975 43.2947 17.5083 43.2947 17.0996C43.2947 16.4726 43.2397 16.0003 43.0847 15.5869C42.9278 15.1687 42.6805 14.8452 42.3601 14.4971V14.4961L42.2048 14.3467C41.8233 14.0171 41.3039 13.8141 40.7722 13.6885C40.1542 13.5424 39.463 13.4883 38.8191 13.4883C37.5528 13.4883 36.3174 13.8154 35.6921 14.8193C35.4396 15.2213 35.2347 15.651 35.0808 16.0996H35.0798L35.0779 16.1064C35.007 16.3257 34.9528 16.55 34.9158 16.7773C34.8917 16.9157 34.8194 17.0416 34.7107 17.1328C34.6018 17.2242 34.4633 17.2752 34.3201 17.2754H31.95C31.8643 17.2754 31.7789 17.2574 31.7009 17.2227C31.623 17.1879 31.5534 17.1372 31.4968 17.0742C31.4402 17.0111 31.3975 16.9367 31.3718 16.8564C31.3463 16.7764 31.3389 16.6918 31.3484 16.6084C31.3726 16.398 31.3996 16.2178 31.4236 16.0771C31.7995 13.9947 32.7401 12.5017 34.2263 11.5537L34.2283 11.5518C35.3991 10.7915 36.8531 10.4004 38.614 10.4004Z"/></svg>