<svg xmlns="http://www.w3.org/2000/svg" width="40" height="40" fill="none" viewBox="0 0 40 40"><path fill="#ffc422" stroke="#222" stroke-width="0.5" d="M20.977 28.25C20.977 28.254 20.59 30.677 21.328 32.121 22.613 34.634 28.697 35.539 28.697 35.539 28.703 35.541 30.7 35.75 30.7 35.75V37.55H9.3V35.75C9.3 35.75 10.898 35.54 10.902 35.539 10.902 35.539 16.986 34.634 18.27 32.121 19.009 30.676 18.621 28.25 18.621 28.25H20.977ZM35.499 8.15 30.899 10.15 31.149 8.1 38.25 4.4C38.25 4.4 37.016 16.522 33.749 20.1 30.599 23.55 25.049 26.15 25.049 26.15 25.049 26.15 30.253 23.35 32.849 19.45 35.08 16.1 35.499 8.15 35.499 8.15ZM4.45 8.15 9.05 10.15 8.8 8.1 1.7 4.4C1.7 4.4 2.934 16.522 6.2 20.1 9.35 23.55 14.901 26.15 14.901 26.15 14.901 26.15 9.697 23.35 7.1 19.45 4.87 16.1 4.45 8.15 4.45 8.15Z"/><path fill="#ffc422" stroke="#222" stroke-width="0.5" d="M31.2593 2.41968L31.2632 2.49487V2.4978C31.2632 2.4978 31.264 2.50192 31.2642 2.50464C31.2645 2.51055 31.2646 2.51962 31.2652 2.53101C31.2663 2.55448 31.268 2.58977 31.27 2.6355C31.2742 2.72736 31.2807 2.86348 31.2866 3.03882C31.2985 3.39004 31.3107 3.90121 31.315 4.53882C31.3235 5.81448 31.298 7.59985 31.1597 9.63647C30.8832 13.7079 30.1576 18.7948 28.3569 22.8328C27.087 25.6803 25.0096 27.1059 23.2505 27.8181C22.3714 28.174 21.5709 28.3512 20.9907 28.4402C20.7008 28.4847 20.4655 28.5071 20.3023 28.5183C20.2226 28.5238 20.16 28.5257 20.1167 28.5271V28.53H19.9663V28.5271C19.923 28.5257 19.8604 28.5238 19.7808 28.5183C19.6176 28.5071 19.3822 28.4847 19.0923 28.4402C18.5121 28.3512 17.7116 28.174 16.8325 27.8181C15.0735 27.1059 12.996 25.6802 11.7261 22.8328C9.92548 18.7948 9.19981 13.7079 8.92335 9.63647C8.78508 7.59985 8.75949 5.81448 8.76808 4.53882C8.77238 3.9012 8.78453 3.39004 8.7964 3.03882C8.80233 2.86348 8.80882 2.72737 8.813 2.6355C8.81509 2.58977 8.81669 2.55448 8.81788 2.53101C8.81846 2.51961 8.81854 2.51055 8.81886 2.50464C8.81905 2.50192 8.81984 2.4978 8.81984 2.4978V2.49487L8.82374 2.41968H31.2593Z"/><path fill="#ffc422" stroke="#222" stroke-width="0.5" d="M7.5 2.40002H32.5V4.80002H7.5z"/><path fill="#fff" stroke="#222" stroke-width="0.5" d="M19.7617 8.55273C19.8362 8.32171 20.1638 8.32172 20.2383 8.55273L21.4365 12.2695C21.5366 12.5799 21.8262 12.7907 22.1523 12.79L26.0586 12.7812C26.3011 12.7807 26.4021 13.091 26.2061 13.2334L23.04 15.5234C22.7761 15.7146 22.6662 16.0545 22.7676 16.3643L23.9824 20.0762C24.0579 20.3067 23.7937 20.4991 23.5977 20.3564L20.4424 18.0527C20.179 17.8606 19.821 17.8606 19.5576 18.0527L16.4023 20.3564C16.2063 20.4991 15.9421 20.3067 16.0176 20.0762L17.2324 16.3643C17.3338 16.0545 17.2239 15.7146 16.96 15.5234L13.7939 13.2334C13.5979 13.091 13.6989 12.7807 13.9414 12.7812L17.8477 12.79C18.1738 12.7907 18.4634 12.5799 18.5635 12.2695L19.7617 8.55273Z"/><path fill="#222" d="M36 7.25 31.3 9.9 35.55 8.1C35.55 8.1 35.325 11.102 35 13 34.69 14.816 33.95 17.6 33.95 17.6 33.95 17.6 34.954 14.836 35.35 13 35.827 10.791 36 7.25 36 7.25ZM3.95 7.25 8.65 9.9 4.4 8.1C4.4 8.1 4.625 11.102 4.95 13 5.261 14.816 6 17.6 6 17.6 6 17.6 4.996 14.836 4.6 13 4.123 10.791 3.95 7.25 3.95 7.25ZM29.842 18.259C30.153 17.125 30.35 16.3 30.35 16.3 30.35 16.3 30.216 17.092 29.842 18.259 29.418 19.802 28.784 21.917 28.15 23.3 26.752 26.35 23.55 27.65 23.55 27.65 23.55 27.65 21.999 28.436 20.1 28.5 18.819 28.543 17.379 28.081 16.15 27.5 13.6 26.294 12.1 23.55 12.1 23.55 12.1 23.55 13.931 25.899 16.85 26.95 19.769 28.001 22.11 27.454 24.05 26.3 27.445 24.28 29.107 20.549 29.842 18.259ZM31.3 4.6V5.8L8.75 4.9 31.3 4.6ZM9 35.6H31V37.7H9V35.6Z"/></svg>