<svg xmlns="http://www.w3.org/2000/svg" width="30" height="30" fill="none" viewBox="0 0 30 30"><path fill="#999" stroke="#999" stroke-width="0.178606" d="M15.0156 1.33887C17.4981 1.33887 19.4256 2.00495 20.7578 3.30371V3.30273C22.9237 5.41699 22.7418 8.44064 22.7314 8.58887C22.723 8.6878 22.6305 8.77441 22.5078 8.77441C22.5006 8.77441 22.4994 8.77458 22.498 8.77441V8.77344H22.4912C22.3609 8.76591 22.2765 8.66597 22.2842 8.56641C22.2856 8.54619 22.3318 7.79572 22.123 6.80176C21.9274 5.87001 21.5064 4.71829 20.6084 3.75391L20.4229 3.56348C19.1714 2.34494 17.3465 1.7334 15.0156 1.7334C12.6889 1.73342 10.9001 2.34002 9.7168 3.55078C8.12132 5.1865 8.07548 7.48054 8.1123 8.25293L8.11816 8.35645L8.21973 8.33594C8.34802 8.30954 8.47911 8.29082 8.61133 8.27734L8.68262 8.26953L8.69141 8.19922C8.88412 6.6492 9.35348 5.58614 9.99121 4.85547L9.99414 4.85156C10.4574 4.24611 11.2824 3.63834 11.9082 3.25879L12.1631 3.11035C14.3243 1.90654 15.9894 2.05044 17.1553 2.5459C18.3263 3.04368 19.0062 3.90139 19.1797 4.1416L19.1973 4.16699L19.2275 4.17578C19.2686 4.18723 19.4705 4.26902 19.7412 4.44336C20.01 4.61649 20.3423 4.87778 20.6465 5.24316C21.2526 5.97134 21.7546 7.12036 21.416 8.83496L21.4131 8.84668L21.4141 8.8584C21.4226 8.99368 21.4309 9.1322 21.4365 9.27344L21.4385 9.33008L21.4902 9.35156C21.7419 9.46003 21.9588 9.63809 22.1016 9.92773C22.2451 10.2194 22.3174 10.6327 22.2646 11.2188C22.2087 11.8372 22.0119 12.2793 21.7441 12.584C21.4765 12.8884 21.1324 13.0618 20.7705 13.1348L20.7246 13.1436L20.7061 13.1865C20.1712 14.3859 19.3708 15.4792 18.3936 16.2725L18.252 16.3877L18.4307 16.4287L20.7773 16.9639C23.9532 17.6883 26.1616 20.2802 26.1611 23.2549V26.873C26.1611 27.8432 25.2936 28.6611 24.2119 28.6611H5.75879C4.6789 28.661 3.83887 27.8447 3.83887 26.873V23.2549C3.83894 20.2795 6.0327 17.6899 9.20996 16.9629L11.5615 16.4248L11.7402 16.3838L11.5977 16.2686C11.0164 15.7982 10.5014 15.2207 10.0693 14.5762C10.5954 14.8458 11.2211 15.0511 11.9434 15.1904C12.8082 16.0333 13.8682 16.585 15.0225 16.585C16.3725 16.5849 17.5943 15.8291 18.5254 14.7334C19.4569 13.6372 20.1065 12.1915 20.3086 10.7871L20.3105 10.7715L20.3076 10.7568C20.1017 9.73767 19.4843 7.59869 17.7441 6.01562L17.6816 5.95801L17.6221 6.01758C16.3039 7.31937 13.8827 8.8264 9.7998 8.70117L9.71484 8.69824L9.70801 8.7832C9.68275 9.12401 9.66993 9.49081 9.66992 9.88379C9.66992 10.4229 9.77676 11.1593 9.99512 11.8975C10.2134 12.6354 10.5456 13.3837 11 13.9414L11.0146 13.96L11.0371 13.9688C11.6992 14.2221 12.62 14.4199 13.9004 14.4756L13.9609 14.4785L13.9854 14.4238C14.1114 14.1473 14.5151 13.9219 15.0225 13.9219C15.3293 13.9219 15.6033 14.0059 15.7979 14.1367C15.9928 14.2679 16.1005 14.4393 16.1006 14.6172C16.1006 14.7952 15.993 14.9674 15.7979 15.0986C15.6033 15.2294 15.3293 15.3125 15.0225 15.3125C14.5784 15.3125 14.2111 15.1409 14.042 14.9092L14.0166 14.874L13.9736 14.8721L13.6201 14.8555C11.8968 14.7531 10.8022 14.3895 10.1113 13.9805L10.0713 13.9561L10.0283 13.9766C9.84097 14.0639 9.62755 14.1122 9.38477 14.1123C8.74249 14.1123 8.08657 13.9262 7.56836 13.4785C7.05124 13.0317 6.66176 12.3161 6.56445 11.2393C6.49042 10.4176 6.58418 9.82447 6.78027 9.39648C6.97549 8.97046 7.2751 8.70144 7.62402 8.53125L7.67871 8.50488L7.67383 8.44336C7.62117 7.82688 7.5236 5.1954 9.37305 3.29883C10.6358 2.00356 12.5285 1.33889 15.0156 1.33887ZM12.916 17.1094L10.1279 17.7471L9.3291 17.9336H9.32812C6.71622 18.5925 4.91016 20.7585 4.91016 23.2559V26.873C4.91034 27.324 5.28314 27.665 5.75977 27.665H24.2119C24.6833 27.665 25.0908 27.3287 25.0908 26.873V26.8174L25.0898 26.8164V23.2559C25.0898 20.7589 23.2681 18.5927 20.6572 17.9346L20.6562 17.9336L19.8447 17.7471L17.0781 17.1133L17.0488 17.1064L17.0215 17.1191C16.6387 17.2878 16.2406 17.4097 15.8301 17.4805L14.1426 17.4727C13.7377 17.4005 13.3471 17.2784 12.9727 17.1143L12.9453 17.1025L12.916 17.1094Z"/><path stroke="#999" stroke-linecap="round" stroke-width="1.2" d="M13 19.75L14 17H16L17 19.75L16 20.85L18 28H12L14 20.85L13 19.75Z"/></svg>