<svg xmlns="http://www.w3.org/2000/svg" width="30" height="30" fill="none" viewBox="0 0 30 30"><g fill="#999" stroke="#999" stroke-width="0.25" clip-path="url(#clip0_1443_35088)"><path d="M14.8963 29.8099C14.774 29.8099 14.6482 29.7731 14.5323 29.7036L9.64896 26.7429C5.37694 23.7672 2.90417 21.1177 2.90417 16.3831V5.1216C2.90417 4.80804 3.08719 4.57608 3.38218 4.51515C4.691 4.3359 8.40269 3.55756 14.6928 0.208141L14.6999 0.204419L14.7066 0.199969C14.7951 0.140987 14.8785 0.112305 14.9615 0.112305C15.0446 0.112305 15.128 0.140987 15.2166 0.199969L15.2228 0.204136L15.2294 0.207736C21.4048 3.53935 25.1879 4.3293 26.5367 4.51458C26.7751 4.57802 27.0189 4.8203 27.0189 5.1216V16.3831C27.0189 18.632 26.4712 20.4711 25.2953 22.1708C24.2892 23.6249 22.8334 24.9924 20.4278 26.7425L15.2839 29.679L15.2685 29.6943C15.2205 29.7423 15.1147 29.7956 15.0129 29.7998L15.003 29.8003L14.9932 29.802C14.9615 29.8072 14.929 29.8099 14.8963 29.8099ZM14.8492 1.53031C9.26873 4.40261 5.76134 5.34568 4.16732 5.65216L4.03605 5.6774V16.3831C4.03605 20.6158 6.21455 22.9263 10.2346 25.7092L10.2391 25.7123L14.8918 28.4896L19.6841 25.7124L19.6903 25.708C23.7493 22.8199 25.8103 20.5848 25.8103 16.3831V5.67841L25.6802 5.6524C23.5567 5.22775 19.9799 4.16805 14.9989 1.53116L14.9242 1.49164L14.8492 1.53031Z"/><path d="M19.0476 12.0055H18.704C18.7051 11.9927 18.7056 11.9797 18.7056 11.9667L18.7132 11.2172C18.7058 9.54119 17.7073 8.19677 16.17 7.79231C15.8605 7.71092 15.5337 7.67038 15.1991 7.67192C14.219 7.67645 13.3306 8.05158 12.6976 8.72822C12.0816 9.38694 11.7447 10.2821 11.7492 11.2473L11.7207 11.9958L11.7576 12.0055H11.2967C10.3263 12.0055 9.53687 12.7949 9.53687 13.7652V18.9325C9.53687 19.9028 10.3263 20.6922 11.2967 20.6922H19.0476C20.0179 20.6922 20.8073 19.9029 20.8073 18.9325V13.7652C20.8073 12.795 20.0179 12.0055 19.0476 12.0055ZM15.2033 8.60783C15.4528 8.6067 15.6955 8.63655 15.9244 8.69679C17.0445 8.9915 17.7718 9.98251 17.7777 11.2211L17.77 11.9704C17.77 11.9823 17.7707 11.994 17.7716 12.0057H12.656L12.6849 11.2448C12.6779 9.72344 13.7371 8.61442 15.2033 8.60783ZM19.8716 18.9326C19.8716 19.3869 19.5019 19.7566 19.0476 19.7566H11.2967C10.8422 19.7566 10.4726 19.3868 10.4726 18.9326V13.7652C10.4726 13.311 10.8422 12.9413 11.2967 12.9413H19.0476C19.5019 12.9413 19.8716 13.311 19.8716 13.7652V18.9326ZM15.1721 14.5892C14.6767 14.5892 14.2737 14.9924 14.2737 15.4877C14.2737 15.8001 14.4381 16.092 14.7042 16.2546V17.6408C14.7042 17.8987 14.9141 18.1086 15.1722 18.1086C15.4301 18.1086 15.64 17.8987 15.64 17.6408V16.2546C15.9062 16.0921 16.0706 15.8002 16.0706 15.4877C16.0706 14.9923 15.6675 14.5892 15.1721 14.5892Z"/></g><defs><clipPath id="clip0_1443_35088"><path fill="#fff" d="M0 0H30V30H0z"/></clipPath></defs></svg>