<svg xmlns="http://www.w3.org/2000/svg" width="30" height="30" fill="none" viewBox="0 0 30 30"><path fill="#999" d="M7.30236 19.5296C7.30205 19.3556 7.36824 19.1881 7.48738 19.0613C7.60653 18.9346 7.76962 18.8582 7.94327 18.8477H17.0864C17.2673 18.8477 17.4407 18.9196 17.5686 19.0474C17.6964 19.1753 17.7683 19.3487 17.7683 19.5296C17.7683 19.7104 17.6964 19.8838 17.5686 20.0117C17.4407 20.1395 17.2673 20.2114 17.0864 20.2114H7.94327C7.76962 20.2009 7.60653 20.1245 7.48738 19.9978C7.36824 19.871 7.30205 19.7035 7.30236 19.5296ZM7.30236 23.5386C7.30205 23.7126 7.36824 23.8801 7.48738 24.0069C7.60653 24.1336 7.76962 24.21 7.94327 24.2205H19.8137C19.9945 24.2205 20.168 24.1486 20.2958 24.0208C20.4237 23.8929 20.4955 23.7195 20.4955 23.5386C20.4955 23.3578 20.4237 23.1844 20.2958 23.0565C20.168 22.9287 19.9945 22.8568 19.8137 22.8568H7.94327C7.76962 22.8673 7.60653 22.9437 7.48738 23.0704C7.36824 23.1972 7.30205 23.3647 7.30236 23.5386ZM26.591 8.75001V28.0682C26.591 28.249 26.5192 28.4224 26.3913 28.5503C26.2634 28.6782 26.09 28.75 25.9092 28.75H4.091C3.91017 28.75 3.73675 28.6782 3.60888 28.5503C3.48101 28.4224 3.40918 28.249 3.40918 28.0682V1.93183C3.40918 1.751 3.48101 1.57758 3.60888 1.44971C3.73675 1.32185 3.91017 1.25001 4.091 1.25001H19.091C19.1807 1.24949 19.2697 1.26669 19.3527 1.30062C19.4358 1.33455 19.5114 1.38455 19.5751 1.44774L26.3933 8.26592C26.4565 8.32963 26.5064 8.40518 26.5404 8.48825C26.5743 8.57132 26.5915 8.66028 26.591 8.75001ZM19.7728 8.06819H24.266L19.7728 3.57501V8.06819ZM25.2274 9.43183H19.091C18.9102 9.43183 18.7367 9.35999 18.6089 9.23213C18.481 9.10426 18.4092 8.93084 18.4092 8.75001V2.61365H4.77282V27.3864H25.2274V9.43183ZM10.4319 15.0296C10.3818 14.9808 10.3421 14.9225 10.3152 14.8581C10.2882 14.7936 10.2746 14.7244 10.2751 14.6546V11.1091C10.2738 11.0074 10.3021 10.9074 10.3566 10.8215C10.4111 10.7355 10.4894 10.6673 10.5819 10.625C11.0128 10.4279 11.3672 10.095 11.591 9.67728C11.7659 9.39489 11.8797 9.07903 11.9251 8.75001C12.0001 8.45683 12.1842 7.71364 12.941 7.71364C13.1046 7.71364 13.9364 7.78183 14.0455 9.07728C14.0466 9.51286 13.9681 9.94497 13.8137 10.3523H15.4774C15.6567 10.3356 15.8358 10.3865 15.9795 10.4949C16.1233 10.6034 16.2214 10.7616 16.2546 10.9386C16.0552 12.1586 15.7912 13.3671 15.4637 14.5591L15.416 14.675C15.351 14.7937 15.2601 14.8963 15.1501 14.975C15.0529 15.0404 14.9442 15.0867 14.8296 15.1114H10.8069C10.676 15.1331 10.5418 15.1038 10.4319 15.0296ZM11.3455 14.1364H14.4887C14.7751 13.0114 15.0205 11.9818 15.1364 11.45H13.6364C13.5062 11.4711 13.373 11.4637 13.2459 11.4284C13.1187 11.3931 13.0008 11.3307 12.9001 11.2455C12.7961 11.1482 12.7203 11.0246 12.6807 10.8878C12.6411 10.751 12.6391 10.606 12.6751 10.4682C12.691 10.401 12.7115 10.3349 12.7364 10.2705L12.8183 10.025C12.9158 9.7612 12.9621 9.48118 12.9546 9.20001V9.0841C12.8677 9.48348 12.7156 9.86585 12.5046 10.2159C12.2355 10.7307 11.8358 11.1657 11.3455 11.4773V14.1364ZM8.61827 15.2136H9.54554C9.6884 15.2136 9.8254 15.1569 9.92641 15.0559C10.0274 14.9549 10.0842 14.8179 10.0842 14.675C10.0842 14.5322 10.0274 14.3951 9.92641 14.2941C9.8254 14.1931 9.6884 14.1364 9.54554 14.1364H9.1569V11.7773H9.54554C9.6884 11.7773 9.8254 11.7205 9.92641 11.6195C10.0274 11.5185 10.0842 11.3815 10.0842 11.2386C10.0842 11.0958 10.0274 10.9588 9.92641 10.8578C9.8254 10.7568 9.6884 10.7 9.54554 10.7H8.61827C8.54702 10.6981 8.47614 10.7108 8.40994 10.7372C8.34374 10.7636 8.28362 10.8032 8.23322 10.8536C8.18282 10.904 8.14322 10.9641 8.11681 11.0303C8.09041 11.0965 8.07776 11.1674 8.07963 11.2386V14.6477C8.07486 14.7207 8.08536 14.7938 8.11047 14.8624C8.13557 14.931 8.17473 14.9937 8.22543 15.0463C8.27613 15.0989 8.33726 15.1404 8.4049 15.168C8.47255 15.1957 8.54522 15.2089 8.61827 15.2068V15.2136Z"/></svg>