<svg xmlns="http://www.w3.org/2000/svg" width="120" height="120" fill="none" viewBox="0 0 120 120"><path fill="#e6e6e6" d="M63.7938 95.2599C63.7938 95.2599 63.7636 101.385 63.739 106.379C49.9644 105.996 14.6247 98.0161 14.7348 94.0543C14.8449 90.0925 25.2776 87.0105 39.0521 87.3933C52.8267 87.7761 63.7938 95.2599 63.7938 95.2599Z"/><path fill="#fff" stroke="#000" d="M65.641 106.584L23.6145 96.9226C23.0278 96.7877 22.6206 96.2538 22.6457 95.6523L24.065 61.5879C24.0866 61.0694 24.4263 60.6182 24.9187 60.4541L47.8014 52.8265C47.9823 52.7662 48.1746 52.7481 48.3637 52.7736L91.4632 58.5848C92.0768 58.6675 92.5373 59.1869 92.5461 59.806L93.0189 93.3813C93.0259 93.8747 92.742 94.326 92.2942 94.5332L66.4462 106.5C66.1945 106.616 65.9113 106.646 65.641 106.584Z"/><path fill="#f8f8f8" stroke="#000" d="M64.5457 106.332L23.6145 96.9226C23.0278 96.7877 22.6206 96.2538 22.6457 95.6523L24.065 61.5879C24.0866 61.0694 24.4263 60.6182 24.9187 60.4541L47.8014 52.8265C47.9823 52.7662 48.1746 52.7481 48.3637 52.7736L86.8602 57.9641C88.19 58.1434 88.3414 60.0069 87.0579 60.3985L67.3884 66.3997C66.8675 66.5586 66.5094 67.0365 66.5032 67.581L66.0756 105.128C66.0666 105.926 65.323 106.511 64.5457 106.332Z"/><path stroke="#000" d="M66.0579 106.68L66.5574 67.2207"/><path fill="#ffc422" d="M29.0957 61.2258L48.5758 54.7324L90.0334 59.2278L66.0579 66.7202L29.0957 61.2258Z"/><path fill="#fff" stroke="#000" d="M58.976 82.773 66.058 66.721 24.967 60.851C24.447 60.777 23.936 61.035 23.688 61.498L17.393 73.248C17 73.982 17.42 74.887 18.233 75.061L57.571 83.49C58.15 83.615 58.737 83.315 58.976 82.773ZM75.511 80.996 66.567 66.875 91.266 58.973C91.732 58.824 92.243 58.961 92.572 59.323L102.297 70.015C102.889 70.666 102.64 71.71 101.818 72.024L77.013 81.495C76.457 81.707 75.829 81.499 75.511 80.996Z"/><path stroke="#222" stroke-linecap="round" d="M53.6878 15.5107L53.9863 21.4154"/><path stroke="#000" stroke-linecap="round" stroke-opacity="0.2" d="M53.6878 15.5107L53.9863 21.4154"/><path stroke="#222" stroke-linecap="round" d="M39.9826 24.2715L46.9535 28.1221"/><path stroke="#000" stroke-linecap="round" stroke-opacity="0.2" d="M39.9826 24.2715L46.9535 28.1221"/><path stroke="#222" stroke-linecap="round" d="M43.935 14.0181L49.5943 23.7574"/><path stroke="#000" stroke-linecap="round" stroke-opacity="0.2" d="M43.935 14.0181L49.5943 23.7574"/><path stroke="#000" stroke-linecap="round" d="M16.273 50.46 20.206 46.526M20.206 50.459 16.273 46.526M103.064 81.285 106.997 77.351M106.997 81.285 103.064 77.351"/><mask id="mask0_8778_20882" width="68" height="61" x="27" y="6" maskUnits="userSpaceOnUse" style="mask-type:alpha"><path fill="#d9d9d9" d="M66.7 66.312L27 61L33.5 6.5L94.25 11.25L91 59L66.7 66.312Z"/></mask><g mask="url(#mask0_8778_20882)"><mask id="path-16-inside-1_8778_20882" fill="#fff"><path d="M67.8901 24.6134C68.8603 24.8094 69.7323 25.49 70.0819 26.5659L79.8127 56.5159C80.5046 58.6456 78.6321 60.7265 76.4418 60.2612L45.6377 53.7136C43.4473 53.248 42.5822 50.5851 44.0807 48.9209L61.9669 29.0561C61.8792 28.9055 61.8427 28.7247 61.8817 28.5408L62.7891 24.2719C62.8727 23.8794 63.2582 23.6291 63.6508 23.7123L67.8901 24.6134Z"/></mask><path fill="#ffc422" d="M67.8901 24.6134C68.8603 24.8094 69.7323 25.49 70.0819 26.5659L79.8127 56.5159C80.5046 58.6456 78.6321 60.7265 76.4418 60.2612L45.6377 53.7136C43.4473 53.248 42.5822 50.5851 44.0807 48.9209L61.9669 29.0561C61.8792 28.9055 61.8427 28.7247 61.8817 28.5408L62.7891 24.2719C62.8727 23.8794 63.2582 23.6291 63.6508 23.7123L67.8901 24.6134Z"/><path fill="#222" d="M67.8901 24.6134L67.7155 25.4351L67.7238 25.4368L67.8901 24.6134ZM70.0819 26.5659L70.8808 26.3063L70.8808 26.3063L70.0819 26.5659ZM79.8127 56.5159L79.0138 56.7755L79.0138 56.7755L79.8127 56.5159ZM76.4418 60.2612L76.2671 61.0828L76.2672 61.0829L76.4418 60.2612ZM45.6377 53.7136L45.4631 54.5352L45.4631 54.5352L45.6377 53.7136ZM44.0807 48.9209L44.7049 49.4829L44.7049 49.4829L44.0807 48.9209ZM61.9669 29.0561L62.5911 29.6182L63.0011 29.1628L62.6927 28.6334L61.9669 29.0561ZM61.8817 28.5408L61.0601 28.3662L61.06 28.3664L61.8817 28.5408ZM62.7891 24.2719L61.9675 24.0969L61.9674 24.0973L62.7891 24.2719ZM63.6508 23.7123L63.8255 22.8907L63.825 22.8906L63.6508 23.7123ZM67.8901 24.6134L67.7238 25.4368C68.4201 25.5774 69.0342 26.0598 69.283 26.8254L70.0819 26.5659L70.8808 26.3063C70.4304 24.9203 69.3005 24.0413 68.0564 23.79L67.8901 24.6134ZM70.0819 26.5659L69.283 26.8254L79.0138 56.7755L79.8127 56.5159L80.6115 56.2564L70.8808 26.3063L70.0819 26.5659ZM79.8127 56.5159L79.0138 56.7755C79.5061 58.2907 78.1738 59.7704 76.6163 59.4395L76.4418 60.2612L76.2672 61.0829C79.0904 61.6826 81.5032 59.0006 80.6115 56.2564L79.8127 56.5159ZM76.4418 60.2612L76.6164 59.4395L45.8124 52.892L45.6377 53.7136L45.4631 54.5352L76.2671 61.0828L76.4418 60.2612ZM45.6377 53.7136L45.8124 52.892C44.2545 52.5608 43.6391 50.6667 44.7049 49.4829L44.0807 48.9209L43.4564 48.3588C41.5253 50.5035 42.6401 53.9352 45.4631 54.5352L45.6377 53.7136ZM44.0807 48.9209L44.7049 49.4829L62.5911 29.6182L61.9669 29.0561L61.3426 28.4941L43.4564 48.3588L44.0807 48.9209ZM61.9669 29.0561L62.6927 28.6334C62.6969 28.6405 62.7016 28.6514 62.7042 28.6664C62.707 28.6821 62.7068 28.6993 62.7034 28.7152L61.8817 28.5408L61.06 28.3664C60.9743 28.7703 61.0568 29.1627 61.241 29.4789L61.9669 29.0561ZM61.8817 28.5408L62.7033 28.7155L63.6107 24.4466L62.7891 24.2719L61.9674 24.0973L61.0601 28.3662L61.8817 28.5408ZM62.7891 24.2719L63.6106 24.447C63.5977 24.5079 63.5375 24.5469 63.4767 24.5341L63.6508 23.7123L63.825 22.8906C62.979 22.7113 62.1478 23.2509 61.9675 24.0969L62.7891 24.2719ZM63.6508 23.7123L63.4762 24.534L67.7155 25.435L67.8901 24.6134L68.0648 23.7918L63.8255 22.8907L63.6508 23.7123Z" mask="url(#path-16-inside-1_8778_20882)"/><path fill="#fff" stroke="#222" stroke-width="0.84" d="M61.9308 25.0478C63.2129 23.6244 65.5549 24.1222 66.1472 25.944L75.8787 55.8952C76.4706 57.7174 74.8684 59.4972 72.9943 59.099L42.1903 52.5514C40.3163 52.1529 39.5765 49.8753 40.8584 48.4514L61.9308 25.0478Z"/><path fill="#ffc422" stroke="#222" stroke-width="0.84" d="M59.7831 47.3197C60.2898 47.4274 60.6504 47.6693 60.8993 48.0382C61.1451 48.4024 61.2255 48.8194 61.1187 49.3218C61.0119 49.8239 60.7668 50.1817 60.3862 50.429C60.0053 50.6763 59.5781 50.7544 59.0757 50.6477C58.5585 50.5376 58.1955 50.2908 57.9497 49.9141C57.7155 49.5375 57.6423 49.1109 57.7496 48.6057C57.8564 48.1034 58.0987 47.7548 58.4712 47.522C58.8485 47.2863 59.2765 47.2121 59.7831 47.3197ZM62.2194 35.858C63.0863 36.0422 63.6278 36.9092 63.4126 37.7689L63.0661 39.1499L61.4657 44.2509C61.3096 44.7485 60.7997 45.0458 60.2895 44.9373C59.7795 44.8287 59.4354 44.35 59.4951 43.832L60.1069 38.5209L60.353 37.1186C60.5061 36.2458 61.3526 35.6739 62.2194 35.858Z"/></g></svg>