<svg xmlns="http://www.w3.org/2000/svg" width="16" height="16" fill="none" viewBox="0 0 16 16"><g clip-path="url(#clip0_527_416)"><path fill="#fbbc05" d="M3.47018 8.06118C3.47018 7.55295 3.55583 7.06589 3.70736 6.60848L1.04665 4.59436C0.511276 5.67167 0.233541 6.85865 0.23536 8.06166C0.23536 9.3073 0.527125 10.4828 1.04477 11.5261L3.70501 9.50871C3.54971 9.04206 3.47043 8.55347 3.47018 8.06166"/><path fill="#ea4335" d="M8.14451 3.43723C9.20478 3.43503 10.2333 3.79908 11.056 4.46782L13.3567 2.19206C11.9549 0.982646 10.1577 0.235352 8.14451 0.235352C5.01887 0.235352 2.33275 2.00665 1.04663 4.59441L3.70922 6.60853C4.3224 4.76382 6.07016 3.43676 8.14545 3.43676"/><path fill="#34a853" d="M8.17831 12.583C6.09219 12.583 4.33548 11.2649 3.71901 9.43103L1.04419 11.4329C2.3369 14.0047 5.03666 15.7647 8.17878 15.7647C10.1167 15.7647 11.967 15.0908 13.3567 13.8263L10.8174 11.903C10.1016 12.3454 9.19901 12.5835 8.17784 12.5835"/><path fill="#4285f4" d="M15.7648 7.98773C15.7648 7.52843 15.6923 7.0329 15.5841 6.57361H8.17749V9.57831H12.4405C12.2278 10.6033 11.6481 11.3905 10.8175 11.903L13.3563 13.8263C14.8156 12.4997 15.7648 10.5228 15.7648 7.98773Z"/></g><defs><clipPath id="clip0_527_416"><path fill="#fff" d="M0 0H16V16H0z"/></clipPath></defs></svg>