<svg xmlns="http://www.w3.org/2000/svg" width="343" height="230" fill="none" viewBox="0 0 343 230"><rect width="343" height="228" fill="#fffbee" rx="8" transform="matrix(1 0 0 -1 0 228)"/><path fill="url(#paint0_linear_6794_3225)" fill-opacity="0.24" d="M0 8.00781C0 3.58954 3.58172 0.0078125 8 0.0078125H335C339.418 0.0078125 343 3.58953 343 8.00781V40.0078C343 44.4261 339.418 48.0078 335 48.0078H7.99999C3.58171 48.0078 0 44.4261 0 40.0078V8.00781Z"/><mask id="mask0_6794_3225" width="343" height="230" x="0" y="0" maskUnits="userSpaceOnUse" style="mask-type:alpha"><rect width="343" height="230" x="9.15527e-05" fill="#fff" rx="8"/></mask><g mask="url(#mask0_6794_3225)"><g opacity="0.2"><path fill="#ffc422" fill-opacity="0.6" stroke="#ffa322" stroke-width="0.5" d="M292.786 146.017C302.361 152.401 302.379 162.777 292.826 169.193C283.273 175.61 267.766 175.636 258.191 169.253C248.616 162.869 248.598 152.493 258.151 146.077C267.704 139.66 283.211 139.634 292.786 146.017Z"/><path fill="#fff1cc" stroke="#ffa322" stroke-width="0.5" d="M293.086 142.241C302.661 148.625 302.679 159.001 293.126 165.417C283.573 171.833 268.066 171.86 258.491 165.477C248.916 159.093 248.898 148.717 258.451 142.301C268.004 135.884 283.511 135.858 293.086 142.241Z"/><path fill="#fff1cc" stroke="#ffa322" stroke-width="0.5" d="M290.21 144.172C298.194 149.494 298.209 158.146 290.244 163.495C282.279 168.845 269.35 168.867 261.366 163.545C253.383 158.223 253.368 149.571 261.333 144.222C269.298 138.872 282.227 138.85 290.21 144.172Z"/><path fill="#ffc422" d="M282.577 153.251C282.792 152.698 282.755 152.121 282.467 151.521C282.214 150.921 281.684 150.351 280.875 149.812C279.976 149.212 279.041 148.878 278.072 148.807C277.102 148.737 276.267 148.936 275.568 149.406C274.456 150.153 274.493 151.114 275.681 152.29L277.245 153.873C277.749 154.401 278.163 154.929 278.487 155.457C278.847 155.985 279.037 156.507 279.055 157.024C279.11 157.541 278.994 158.051 278.708 158.556C278.422 159.062 277.92 159.555 277.202 160.037C276.539 160.483 275.83 160.802 275.076 160.996C274.322 161.189 273.541 161.269 272.733 161.234C271.961 161.199 271.18 161.063 270.389 160.824C269.599 160.585 268.835 160.256 268.098 159.836L266.484 160.92C266.215 161.101 265.91 161.198 265.569 161.21C265.246 161.235 264.931 161.145 264.626 160.942C264.356 160.762 264.23 160.558 264.247 160.33C264.283 160.113 264.435 159.915 264.704 159.734L266.345 158.632C265.68 158.092 265.194 157.564 264.888 157.048C264.6 156.52 264.42 156.04 264.347 155.607C264.292 155.163 264.319 154.76 264.426 154.4C264.551 154.027 264.703 153.72 264.882 153.48C265.007 153.275 265.16 153.113 265.339 152.992C265.644 152.788 265.976 152.685 266.335 152.684C266.712 152.696 267.045 152.797 267.332 152.989C267.584 153.157 267.701 153.331 267.683 153.511C267.684 153.703 267.639 153.914 267.55 154.142C267.442 154.407 267.353 154.695 267.282 155.008C267.228 155.308 267.238 155.626 267.31 155.963C267.401 156.311 267.581 156.671 267.851 157.043C268.157 157.415 268.615 157.805 269.227 158.212C270.305 158.931 271.365 159.29 272.407 159.288C273.466 159.298 274.337 159.075 275.018 158.617C275.825 158.075 276.21 157.503 276.173 156.903C276.136 156.302 275.767 155.648 275.066 154.94L273.366 153.267C272.215 152.115 271.665 151.113 271.718 150.26C271.806 149.407 272.352 148.643 273.357 147.968C274.541 147.173 275.905 146.798 277.449 146.844C278.993 146.889 280.502 147.319 281.976 148.134L283.563 147.068C283.814 146.899 284.11 146.808 284.452 146.796C284.793 146.783 285.098 146.867 285.368 147.046C285.637 147.226 285.764 147.43 285.746 147.659C285.728 147.887 285.594 148.085 285.343 148.254L283.702 149.356C284.205 149.812 284.583 150.256 284.835 150.688C285.123 151.12 285.313 151.534 285.403 151.931C285.512 152.339 285.53 152.711 285.459 153.048C285.424 153.384 285.343 153.679 285.218 153.931C285.164 154.016 285.093 154.112 285.003 154.22C284.931 154.316 284.842 154.401 284.734 154.473C284.483 154.642 284.178 154.726 283.819 154.727C283.478 154.739 283.163 154.65 282.876 154.458C282.624 154.29 282.489 154.104 282.471 153.9C282.47 153.708 282.506 153.492 282.577 153.251Z"/></g><g opacity="0.3"><path fill="#ffc422" fill-opacity="0.6" stroke="#ffa322" stroke-width="0.5" d="M311.481 -0.352965C334.012 -8.36367 352.276 4.52758 352.276 28.44C352.276 52.3524 334.012 78.2307 311.481 86.2418C288.95 94.2527 270.685 81.3624 270.685 57.4501C270.685 33.5375 288.95 7.65797 311.481 -0.352965Z"/><path fill="#fff1cc" stroke="#ffa322" stroke-width="0.5" d="M305.156 -5.58758C327.686 -13.5983 345.951 -0.707043 345.951 23.2054C345.951 47.1177 327.686 72.9961 305.156 81.0071C282.625 89.018 264.36 76.1278 264.36 52.2155C264.36 28.3029 282.625 2.42335 305.156 -5.58758Z"/><path fill="#fff1cc" stroke="#ffa322" stroke-width="0.5" d="M305.156 1.65511C323.917 -5.01538 339.126 5.71938 339.126 25.6315C339.126 45.5434 323.917 67.0926 305.156 73.7635C286.394 80.4342 271.185 69.7004 271.185 49.7885C271.185 29.8762 286.394 8.32589 305.156 1.65511Z"/><path fill="#ffc422" d="M312.148 25.5615C311.425 24.5087 310.36 23.848 308.956 23.5794C307.594 23.2506 305.955 23.4266 304.039 24.1077C301.911 24.8644 300.208 26.0119 298.931 27.5502C297.654 29.0885 297.016 30.7386 297.016 32.5005C297.016 35.3015 298.761 36.4428 302.252 35.9246L306.913 35.2839C308.445 35.1004 309.871 35.0678 311.19 35.1859C312.553 35.2437 313.702 35.5805 314.638 36.1962C315.617 36.7517 316.384 37.5861 316.937 38.6995C317.49 39.8128 317.767 41.2731 317.767 43.0801C317.767 44.7517 317.49 46.3409 316.937 47.8478C316.384 49.3546 315.596 50.7641 314.574 52.076C313.595 53.3276 312.425 54.4667 311.063 55.4931C309.701 56.5195 308.211 57.3881 306.593 58.0987V62.1646C306.593 62.8423 306.402 63.4751 306.019 64.0631C305.678 64.6359 305.146 65.051 304.422 65.3083C303.784 65.5353 303.273 65.491 302.89 65.1755C302.55 64.8448 302.379 64.3406 302.379 63.663V59.5293C300.634 59.9691 299.123 60.1224 297.846 59.9891C296.569 59.8107 295.505 59.5114 294.653 59.0913C293.802 58.6259 293.121 58.0775 292.61 57.4459C292.099 56.7692 291.738 56.1298 291.525 55.5279C291.312 55.0614 291.206 54.6023 291.206 54.1505C291.206 53.3825 291.418 52.697 291.844 52.0938C292.312 51.4756 292.887 51.0454 293.568 50.8032C294.164 50.5914 294.611 50.6132 294.909 50.8686C295.249 51.109 295.569 51.4472 295.867 51.8834C296.207 52.3948 296.612 52.9061 297.08 53.4173C297.548 53.8832 298.123 54.2662 298.804 54.5662C299.527 54.851 300.379 55.0001 301.358 55.0134C302.379 54.9664 303.614 54.6856 305.061 54.1711C307.615 53.263 309.509 51.9344 310.744 50.1854C312.021 48.4212 312.659 46.6808 312.659 44.9641C312.659 42.9311 312.106 41.5692 310.999 40.8785C309.892 40.1878 308.296 39.9873 306.21 40.2771L301.23 41.0314C297.825 41.5194 295.398 41.1849 293.951 40.0279C292.546 38.8106 291.844 36.937 291.844 34.4071C291.844 31.4255 292.802 28.668 294.717 26.1347C296.633 23.6013 299.187 21.609 302.379 20.1577V16.1595C302.379 15.5271 302.571 14.9168 302.954 14.3289C303.337 13.7409 303.848 13.3334 304.486 13.1064C305.125 12.8793 305.636 12.9236 306.019 13.2392C306.402 13.5547 306.593 14.0287 306.593 14.6612V18.7949C307.998 18.5213 309.232 18.4438 310.297 18.5624C311.403 18.6207 312.361 18.8223 313.17 19.1672C314.021 19.497 314.702 19.9325 315.213 20.4737C315.766 20.9546 316.192 21.4583 316.49 21.9848C316.575 22.1804 316.66 22.4212 316.745 22.7072C316.83 22.948 316.873 23.2039 316.873 23.475C316.873 24.1075 316.66 24.7253 316.235 25.3284C315.851 25.9163 315.319 26.3314 314.638 26.5736C314.042 26.7855 313.553 26.7788 313.17 26.5536C312.829 26.3133 312.489 25.9826 312.148 25.5615Z"/></g><g opacity="0.3"><path fill="#ffc422" fill-opacity="0.6" stroke="#ffa322" stroke-width="0.5" d="M79.4944 118.338C92.4833 109.679 103.013 115.314 103.014 130.924C103.014 146.535 92.4834 166.211 79.4944 174.87C66.5055 183.53 55.9759 177.894 55.9759 162.283C55.9761 146.672 66.5056 126.998 79.4944 118.338Z"/><path fill="#fff1cc" stroke="#ffa322" stroke-width="0.5" d="M75.8592 115.891C88.8481 107.232 99.3783 112.866 99.3784 128.477C99.3784 144.088 88.8482 163.764 75.8592 172.423C62.8703 181.082 52.3408 175.446 52.3408 159.835C52.3409 144.225 62.8704 124.55 75.8592 115.891Z"/><path fill="#fff1cc" stroke="#ffa322" stroke-width="0.5" d="M75.8593 120.605C86.682 113.39 95.4555 118.086 95.4555 131.093C95.4555 144.1 86.6821 160.494 75.8593 167.709C65.0365 174.924 56.263 170.228 56.263 157.221C56.2631 144.214 65.0366 127.821 75.8593 120.605Z"/><path fill="#ffc422" d="M79.8783 135.189C79.4624 134.613 78.8508 134.345 78.0435 134.383C77.2607 134.376 76.3188 134.739 75.218 135.473C73.9948 136.289 73.0162 137.294 72.2823 138.489C71.5484 139.684 71.1814 140.854 71.1814 142.001C71.1814 143.824 72.1845 144.302 74.1905 143.435L76.8693 142.311C77.75 141.959 78.5695 141.721 79.3279 141.598C80.1107 141.429 80.7712 141.473 81.3094 141.732C81.8721 141.945 82.3125 142.372 82.6305 143.012C82.9485 143.653 83.1075 144.561 83.1075 145.737C83.1075 146.825 82.9485 147.902 82.6305 148.966C82.3125 150.031 81.8599 151.068 81.2727 152.077C80.7101 153.04 80.0373 153.959 79.2545 154.833C78.4716 155.708 77.6154 156.499 76.6858 157.207V159.853C76.6858 160.295 76.5757 160.735 76.3555 161.176C76.1598 161.601 75.854 161.952 75.4381 162.229C75.0712 162.473 74.7776 162.522 74.5574 162.375C74.3617 162.211 74.2639 161.909 74.2639 161.468V158.778C73.2609 159.329 72.3924 159.658 71.6585 159.765C70.9246 159.843 70.313 159.809 69.8237 159.665C69.3344 159.491 68.943 159.238 68.6494 158.904C68.3559 158.541 68.1479 158.18 68.0256 157.821C67.9033 157.549 67.8421 157.267 67.8421 156.973C67.8421 156.473 67.9645 155.995 68.2091 155.537C68.4782 155.064 68.8085 154.697 69.1999 154.436C69.5424 154.208 69.7992 154.154 69.9705 154.275C70.1662 154.38 70.3497 154.551 70.5209 154.79C70.7166 155.071 70.949 155.343 71.2181 155.604C71.4872 155.836 71.8175 155.998 72.2089 156.09C72.6248 156.166 73.1141 156.134 73.6767 155.994C74.2639 155.808 74.9733 155.438 75.8051 154.884C77.2729 153.905 78.3616 152.753 79.071 151.427C79.8049 150.086 80.1719 148.856 80.1719 147.739C80.1719 146.416 79.8538 145.613 79.2178 145.332C78.5817 145.05 77.6643 145.162 76.4656 145.667L73.6034 146.914C71.6462 147.748 70.2518 147.898 69.42 147.365C68.6127 146.786 68.2091 145.673 68.2091 144.027C68.2091 142.086 68.7595 140.146 69.8604 138.207C70.9613 136.267 72.4291 134.583 74.2639 133.154V130.552C74.2639 130.141 74.374 129.714 74.5941 129.274C74.8143 128.833 75.1079 128.49 75.4748 128.245C75.8418 128.001 76.1354 127.952 76.3555 128.099C76.5757 128.247 76.6858 128.526 76.6858 128.938V131.628C77.4931 131.237 78.2025 130.999 78.8141 130.915C79.4502 130.785 80.0006 130.77 80.4654 130.872C80.9547 130.958 81.3461 131.138 81.6397 131.412C81.9577 131.641 82.2024 131.905 82.3736 132.202C82.4225 132.316 82.4715 132.46 82.5204 132.633C82.5693 132.777 82.5938 132.937 82.5938 133.114C82.5938 133.525 82.4715 133.96 82.2268 134.417C82.0067 134.858 81.7009 135.209 81.3094 135.47C80.9669 135.698 80.6856 135.768 80.4654 135.679C80.2697 135.575 80.074 135.411 79.8783 135.189Z"/></g></g><defs><linearGradient id="paint0_linear_6794_3225" x1="171.957" x2="171.957" y1="0.00781332" y2="47.1189" gradientUnits="userSpaceOnUse"><stop stop-color="#ffc422"/><stop offset="1" stop-color="#fff" stop-opacity="0"/></linearGradient></defs></svg>