<svg xmlns="http://www.w3.org/2000/svg" width="40" height="40" fill="none" viewBox="0 0 40 40"><path fill="#000" d="M30.4176 11.8569C31.0018 11.0037 31.586 10.1505 32.1702 9.29724C32.7437 8.46033 33.3159 7.62279 33.8907 6.78713C34.5867 5.77505 35.627 5.57602 36.6389 6.25911C36.9166 6.44621 37.1943 6.63331 37.4688 6.8248C38.3765 7.45766 38.5969 8.50051 37.9983 9.43788C37.6214 10.028 37.215 10.6 36.8111 11.1726C36.7093 11.317 36.6942 11.4376 36.7596 11.6014C36.9392 12.0472 37.0937 12.5024 37.2703 12.9494C37.4801 13.4805 37.4122 13.9665 37.0881 14.4336C36.4329 15.3791 35.7872 16.3316 35.1376 17.2802C34.9203 17.5973 34.7117 17.6871 34.5044 17.554C34.2921 17.4171 34.299 17.1735 34.5277 16.8395C35.159 15.9159 35.784 14.9874 36.4273 14.072C36.6415 13.7675 36.6905 13.4736 36.5441 13.1327C36.4097 12.8182 36.296 12.4948 36.1578 12.1345C35.8676 12.557 35.6018 12.9431 35.3368 13.3299C33.7368 15.6692 32.1381 18.0092 30.5338 20.3454C30.4038 20.535 30.3428 20.7214 30.3435 20.9531C30.3491 24.6994 30.3158 28.4458 30.3636 32.1915C30.3824 33.6807 29.366 34.7556 27.9407 34.8805C26.0148 35.0494 24.1032 35.3728 22.1848 35.6289C19.8933 35.9347 17.6017 36.2373 15.3108 36.5437C12.9683 36.857 10.6253 37.169 8.28347 37.4886C7.46623 37.6003 6.7476 37.0328 6.67348 36.1933C6.66343 36.0791 6.6672 35.9635 6.6672 35.848C6.6672 26.4398 6.6672 17.0329 6.6672 7.62593C6.6672 6.45312 7.27212 5.84725 8.44177 5.84725C15.1531 5.84662 21.8638 5.8573 28.5745 5.83595C29.5991 5.83281 30.4804 6.44433 30.3466 7.84567C30.3252 8.06541 30.2027 8.20417 29.9911 8.21421C29.7561 8.22614 29.628 8.07107 29.6003 7.84755C29.5834 7.7132 29.5972 7.5757 29.5941 7.44008C29.5809 6.9196 29.2687 6.61196 28.7423 6.60066C28.6794 6.5994 28.6166 6.60066 28.5538 6.60066C21.8531 6.60066 15.1531 6.60066 8.45245 6.60066C7.68985 6.60066 7.42225 6.87126 7.42225 7.64351C7.42225 17.0404 7.42225 26.4367 7.42225 35.8336C7.42225 35.9485 7.41723 36.0653 7.43356 36.1783C7.49072 36.5707 7.77466 36.7848 8.16663 36.7232C8.3199 36.6994 8.47066 36.6466 8.61766 36.5945C13.1361 34.986 17.6545 33.3775 22.1716 31.7664C23.3526 31.3451 24.5304 30.9157 25.7095 30.4907C26.2522 30.2954 26.4356 30.4291 26.4369 31.018C26.4375 31.5203 26.43 32.0226 26.44 32.5249C26.4582 33.407 27.1341 34.0832 27.9935 34.0901C28.8528 34.097 29.5853 33.4051 29.5878 32.5242C29.5991 28.9976 29.5934 25.4717 29.5928 21.9451C29.5928 21.9162 29.5815 21.8867 29.5633 21.7957C29.3685 22.0744 29.1776 22.3042 29.0344 22.5604C28.4533 23.6001 27.6354 24.3811 26.592 24.9594C25.9262 25.3285 25.3093 25.7862 24.6698 26.2038C24.2829 26.4568 23.889 26.5698 23.4851 26.2446C23.3482 26.1347 23.2741 26.2634 23.1861 26.3136C22.5931 26.6533 21.9976 26.9735 21.2821 26.9547C20.5265 26.9352 20.1037 26.6137 19.8933 25.8823C19.6872 25.1659 19.637 25.1452 19.0019 25.5621C18.6175 25.8145 18.2412 26.0801 17.8574 26.3343C17.7185 26.4266 17.5741 26.5127 17.4239 26.5842C16.8498 26.858 16.5432 26.7198 16.3661 26.1146C16.2392 25.6814 16.231 25.667 15.8334 25.8829C15.089 26.2866 14.3547 26.7079 13.616 27.1217C13.5155 27.1775 13.4162 27.2359 13.312 27.2849C13.0965 27.386 12.8886 27.3803 12.7761 27.1455C12.6712 26.9264 12.7497 26.7424 12.9677 26.6194C13.687 26.2132 14.4024 25.8013 15.1223 25.3957C15.3679 25.2576 15.6198 25.1301 15.8925 25.0479C16.488 24.8677 16.8385 25.0284 16.9999 25.6167C17.0828 25.9181 17.1796 25.8961 17.3888 25.7454C17.7449 25.4886 18.1149 25.2513 18.4786 25.0052C18.7399 24.8288 19.0151 24.6806 19.3191 24.5915C19.7764 24.4571 20.1502 24.6065 20.3845 25.0209C20.4938 25.2136 20.5484 25.4265 20.6069 25.6381C20.7294 26.0826 20.9191 26.2238 21.3808 26.1899C22.0077 26.1435 22.5353 25.8471 23.0429 25.5056C23.1453 25.4365 23.1447 25.326 23.1654 25.2287C23.4248 24.0126 23.6811 22.7965 23.933 21.5784C23.9782 21.3593 24.0586 21.1653 24.1862 20.9795C25.9306 18.4348 27.6687 15.8858 29.415 13.3431C29.5469 13.1509 29.6028 12.9632 29.5984 12.734C29.5871 12.1483 29.5928 7.96355 29.5959 7.37777C29.5978 7.04941 29.7404 6.86796 29.9885 6.88743C30.2875 6.91066 30.3529 7.11847 30.3497 7.37589C30.346 7.66532 30.3491 11.5531 30.3491 11.8425C30.3724 11.8469 30.3956 11.8519 30.4188 11.8563L30.4176 11.8569ZM35.6936 11.4702C35.6929 11.3635 35.6144 11.3377 35.5572 11.2982C34.7475 10.7406 33.9334 10.1894 33.1294 9.62435C32.9529 9.50003 32.8882 9.57789 32.7946 9.71475C30.2122 13.4969 27.6285 17.2784 25.0373 21.0548C24.9004 21.2539 24.9274 21.3342 25.1184 21.4617C25.9017 21.9828 26.6775 22.5164 27.4476 23.0576C27.6229 23.1807 27.7058 23.175 27.8314 22.9873C28.5218 21.9526 29.2272 20.9267 29.9295 19.9002C31.8071 17.1559 33.6853 14.4123 35.5635 11.668C35.61 11.5995 35.6552 11.5298 35.6936 11.4715V11.4702ZM26.5054 34.2872C25.69 33.5834 25.6385 32.695 25.6825 31.7777C25.6856 31.7149 25.6762 31.6515 25.6837 31.59C25.717 31.3364 25.6171 31.3207 25.4035 31.3991C24.3162 31.7997 23.2257 32.1915 22.1346 32.5801C18.9975 33.6977 15.8598 34.8121 12.7221 35.9284C12.5437 35.9918 12.3672 36.0609 12.19 36.1268C12.1963 36.1475 12.202 36.1682 12.2083 36.1889C16.9478 35.5586 21.6879 34.9282 26.5054 34.2872ZM37.5762 8.4823C37.5668 8.04281 37.4443 7.75714 37.1767 7.56C36.7979 7.28124 36.4153 7.00436 36.0114 6.76516C35.5183 6.47321 34.9536 6.5994 34.62 7.06275C34.2299 7.60583 33.8656 8.16775 33.4818 8.71586C33.3882 8.85022 33.4045 8.92053 33.5396 9.01094C34.3556 9.55842 35.169 10.1103 35.9769 10.6703C36.1276 10.7752 36.1986 10.7463 36.2935 10.6044C36.6415 10.0827 37.0027 9.56972 37.3557 9.05113C37.4933 8.84833 37.5843 8.62859 37.5762 8.4823ZM27.0914 23.7232C26.2937 23.1782 25.5267 22.6558 24.7609 22.1303C24.5737 22.0016 24.5844 22.1573 24.5618 22.2628C24.3457 23.2849 24.1309 24.307 23.9154 25.3292C23.8922 25.4384 23.8256 25.5546 23.9506 25.6437C24.0762 25.7335 24.1679 25.633 24.2597 25.574C24.7867 25.2344 25.3125 24.8916 25.8376 24.5481C26.2472 24.2807 26.6555 24.0101 27.0914 23.7232Z"/><path fill="#000" d="M18.218 11.049C20.541 11.049 22.866 11.049 25.189 11.049 25.336 11.049 25.484 11.034 25.599 11.158 25.7 11.268 25.729 11.396 25.687 11.536 25.645 11.679 25.538 11.765 25.396 11.791 25.294 11.81 25.187 11.802 25.083 11.802 20.488 11.802 15.892 11.802 11.297 11.802 11.245 11.802 11.192 11.803 11.14 11.802 10.854 11.792 10.66 11.63 10.687 11.4 10.718 11.132 10.896 11.046 11.152 11.047 12.995 11.051 14.837 11.049 16.679 11.049 17.192 11.049 17.705 11.049 18.218 11.049ZM18.183 14.897C15.891 14.897 13.598 14.897 11.306 14.897 11.223 14.897 11.138 14.899 11.055 14.896 10.829 14.886 10.702 14.755 10.689 14.543 10.674 14.324 10.811 14.195 11.018 14.151 11.099 14.134 11.185 14.144 11.269 14.144 15.885 14.144 20.501 14.144 25.118 14.144 25.222 14.144 25.331 14.135 25.429 14.164 25.623 14.22 25.723 14.363 25.7 14.567 25.679 14.756 25.564 14.869 25.374 14.892 25.281 14.903 25.185 14.896 25.091 14.896 22.788 14.896 20.485 14.896 18.183 14.896L18.183 14.897ZM14.637 18.028C13.477 18.028 12.316 18.026 11.155 18.03 10.961 18.03 10.806 17.984 10.718 17.796 10.651 17.655 10.685 17.53 10.774 17.416 10.865 17.297 10.993 17.273 11.137 17.273 13.468 17.275 15.801 17.275 18.133 17.273 18.398 17.273 18.569 17.4 18.565 17.658 18.562 17.918 18.381 18.031 18.119 18.029 16.958 18.026 15.798 18.028 14.637 18.028L14.637 18.028Z"/></svg>