<svg xmlns="http://www.w3.org/2000/svg" width="40" height="40" fill="none" viewBox="0 0 40 40"><path fill="#000" d="M19.9924 34.5362C16.326 34.5362 12.6601 34.5324 8.99367 34.5387C8.01134 34.5406 7.17227 34.2354 6.53081 33.488C6.12854 33.0194 5.89703 32.4713 5.8625 31.8513C5.8529 31.6835 5.84971 31.5152 5.84971 31.3474C5.84907 25.0946 5.87337 18.8406 5.83308 12.5872C5.82221 10.9449 7.06291 9.43435 8.95786 9.49995C9.19832 9.50814 9.31728 9.4867 9.34798 9.18081C9.45606 8.09979 9.83594 7.10896 10.6315 6.33131C11.8997 5.09135 13.6252 5.18848 14.7732 6.54449C15.4057 7.29123 15.767 8.16538 15.8386 9.12909C15.8693 9.54409 16.0938 9.48796 16.3605 9.5031C16.6368 9.5195 16.727 9.44634 16.7577 9.14865C16.8683 8.07772 17.2482 7.0995 18.0367 6.33131C19.3254 5.07685 21.088 5.19542 22.2193 6.59431C22.8409 7.3625 23.1741 8.25116 23.2598 9.22496C23.2797 9.44823 23.3577 9.52265 23.5694 9.49931C23.6429 9.49112 23.7197 9.48922 23.7926 9.49931C24.0484 9.53463 24.1373 9.43751 24.159 9.1764C24.2396 8.19881 24.6009 7.32088 25.2239 6.55584C26.1729 5.38904 27.6343 5.13487 28.8737 5.92009C29.3668 6.23229 29.7371 6.66432 30.0217 7.16825C30.3728 7.79075 30.612 8.45551 30.6593 9.16441C30.6804 9.48039 30.8109 9.51004 31.0686 9.50184C31.8795 9.47661 32.6009 9.71691 33.2046 10.2625C33.864 10.8585 34.1639 11.6103 34.1646 12.4832C34.1659 18.8419 34.1716 25.2006 34.1607 31.5599C34.1576 33.3196 32.8746 34.5331 31.0558 34.5356C27.3682 34.5406 23.6807 34.5375 19.9931 34.5375L19.9924 34.5362ZM11.5346 11.4671C11.5793 11.433 11.6126 11.4084 11.6452 11.3832C12.4497 10.7531 13.3675 10.9228 13.8772 11.8102C14.3664 12.661 14.3747 13.5326 13.9226 14.3999C13.6597 14.9044 13.2645 15.2469 12.6569 15.2784C12.0091 15.3118 11.5294 14.9769 11.3126 14.4408C11.0555 13.8045 10.6443 13.3062 10.2337 12.7796C9.67734 12.0663 9.42152 11.2173 9.33391 10.3224C9.32303 10.2101 9.3467 10.1105 9.16251 10.0915C7.67431 9.94207 6.46302 10.989 6.46174 12.4535C6.45855 18.8021 6.45855 25.1508 6.46174 31.4994C6.46238 32.9405 7.44983 33.9232 8.90734 33.9244C16.3042 33.9282 23.7011 33.9282 31.098 33.9244C32.5498 33.9238 33.5506 32.9323 33.5513 31.5013C33.5545 25.1842 33.5545 18.8671 33.5513 12.55C33.5506 11.071 32.5593 10.0991 31.0673 10.0972C29.4793 10.0953 27.8914 10.0972 26.3028 10.0972C26.2388 10.0972 26.1748 10.1004 26.1109 10.0972C26.0028 10.0928 25.96 10.1332 25.9766 10.2461C26.038 10.6712 26.1141 11.0906 26.352 11.4684C27.326 10.5482 28.3985 11.1265 28.7854 11.9868C29.1877 12.8811 29.134 13.7446 28.6287 14.5777C28.3045 15.1119 27.7123 15.3781 27.131 15.2576C26.556 15.1384 26.1832 14.7455 26.0066 14.2346C25.848 13.7742 25.5865 13.4248 25.2667 13.0678C24.592 12.3154 24.2569 11.4002 24.1552 10.4031C24.1398 10.253 24.1763 10.0915 23.9173 10.0928C22.2014 10.1016 20.4855 10.0991 18.7696 10.0947C18.6181 10.0947 18.565 10.1262 18.5835 10.2896C18.6315 10.7008 18.7357 11.0918 18.934 11.4602C20.1376 10.4561 21.2031 11.2773 21.5229 12.3148C21.7735 13.1277 21.6629 13.8972 21.2056 14.6099C20.8347 15.1882 20.1389 15.431 19.5384 15.2059C19.0453 15.0211 18.7351 14.6357 18.5784 14.1678C18.4416 13.7591 18.219 13.4481 17.9242 13.1347C17.1989 12.3627 16.8517 11.4084 16.7481 10.3672C16.7327 10.2101 16.7397 10.0915 16.5134 10.0928C14.7975 10.101 13.0816 10.0991 11.3657 10.0947C11.2058 10.0947 11.1611 10.1458 11.1796 10.2959C11.2301 10.7027 11.3299 11.0937 11.5371 11.4677L11.5346 11.4671ZM20.9332 12.6377C19.8895 13.1416 19.1431 12.9461 18.5298 12.0089C17.7074 10.7513 17.7438 8.67688 18.611 7.45522C19.154 6.69018 20.0059 6.45493 20.7554 6.87182C21.1078 7.06797 21.3585 7.36629 21.5542 7.71128C21.8286 8.1944 22.0063 8.71157 22.0454 9.26154C22.0703 9.61599 22.3165 9.47724 22.4866 9.49112C22.7341 9.51193 22.6465 9.32461 22.6356 9.20604C22.5666 8.43532 22.3012 7.73083 21.8426 7.10707C20.9191 5.85072 19.4629 5.70061 18.43 6.81632C16.8063 8.57092 17.0921 11.5037 18.5407 12.8906C19.1054 13.4311 19.7865 13.6487 20.5661 13.4343C21.0688 13.2961 21.1302 13.1454 20.9332 12.6377ZM28.355 12.6251C27.1661 13.2974 26.4396 12.7317 25.9683 12.0562C25.0959 10.8068 25.135 8.64913 26.0335 7.4281C26.7428 6.46439 27.8715 6.4051 28.6652 7.30448C29.1576 7.86265 29.3751 8.5457 29.4506 9.26596C29.4851 9.5914 29.6942 9.47661 29.8599 9.49553C30.0843 9.52076 30.06 9.3675 30.0453 9.22937C29.9526 8.36216 29.6603 7.56811 29.0771 6.90714C28.1165 5.81855 26.7856 5.79711 25.7956 6.83713C25.4778 7.17077 25.2641 7.57063 25.0972 7.99383C24.4986 9.51697 24.6355 10.9827 25.4989 12.369C26.0418 13.2413 27.0101 13.6701 27.8549 13.4658C28.4733 13.3163 28.5072 13.2614 28.355 12.6251ZM9.93955 10.06C9.94786 10.7449 10.2107 11.6456 10.6846 12.3684C11.3069 13.3169 12.3794 13.7382 13.2862 13.3914C13.6271 13.2608 13.6962 13.1139 13.5971 12.7644C13.5612 12.6383 13.5158 12.6238 13.3994 12.69C12.3762 13.2741 11.5864 12.6957 11.1361 12.0234C10.306 10.7828 10.3354 8.69833 11.1975 7.47225C11.7462 6.69144 12.6103 6.45051 13.3649 6.87813C13.725 7.08247 13.9808 7.39215 14.1739 7.75038C14.4317 8.22782 14.6005 8.73428 14.6408 9.27542C14.6664 9.61915 14.9254 9.47661 15.0974 9.49175C15.3129 9.51067 15.2541 9.34984 15.2413 9.23064C15.1633 8.49713 14.9228 7.82102 14.5071 7.20672C13.4781 5.68547 11.6452 5.70944 10.6654 7.26222C10.1762 8.03798 9.92868 8.88501 9.93891 10.0606L9.93955 10.06ZM12.6032 9.49679C13.008 9.49679 13.4129 9.49805 13.8171 9.49679C13.9347 9.49679 14.0556 9.5113 14.0307 9.3202C13.9546 8.73806 13.796 8.18683 13.4142 7.72516C12.9192 7.12662 12.2476 7.1323 11.7712 7.74155C11.4258 8.18367 11.2596 8.70148 11.1796 9.25019C11.1502 9.45201 11.2276 9.50625 11.4207 9.50058C11.8147 9.48985 12.2086 9.49742 12.6026 9.49742L12.6032 9.49679ZM20.0071 9.49616C20.4113 9.49616 20.8149 9.49175 21.2191 9.49805C21.3847 9.50058 21.4448 9.44823 21.425 9.27794C21.3566 8.69328 21.1807 8.14899 20.7938 7.69425C20.3192 7.13734 19.6861 7.13356 19.216 7.69425C18.8342 8.14962 18.6539 8.69454 18.5874 9.27983C18.5675 9.45264 18.6321 9.50058 18.7959 9.49805C19.1994 9.49112 19.6036 9.49616 20.0078 9.49616H20.0071ZM27.4092 9.49679C27.8031 9.49679 28.1977 9.48922 28.591 9.49995C28.7848 9.50562 28.8615 9.45012 28.8315 9.24893C28.7503 8.7122 28.5955 8.2026 28.2572 7.76678C27.7526 7.11653 27.0504 7.11527 26.5547 7.77183C26.2241 8.20953 26.0616 8.71662 25.9887 9.25713C25.9638 9.44066 26.0079 9.5031 26.1953 9.49931C26.6001 9.49112 27.0043 9.49679 27.4092 9.49679ZM20.8571 13.976C20.2674 14.1728 19.7341 14.1671 19.1591 13.9798C19.3471 14.3778 19.5799 14.6629 19.9784 14.6761C20.396 14.6893 20.6428 14.4005 20.8571 13.976ZM11.7418 13.9735C11.9733 14.3967 12.208 14.6938 12.6294 14.6742C13.024 14.6559 13.2619 14.3828 13.4417 13.9811C12.8725 14.1703 12.3429 14.1728 11.7418 13.9741V13.9735ZM28.2143 13.9905C27.6707 14.1722 27.1412 14.1684 26.595 13.9893C26.7651 14.4181 27.0932 14.6868 27.4092 14.6843C27.7276 14.6818 28.0647 14.4024 28.2143 13.9905ZM12.5975 12.3085C12.8533 12.311 13.246 12.1211 13.2498 11.9944C13.2543 11.8354 12.8801 11.6122 12.6064 11.6109C12.334 11.609 11.9125 11.8411 11.9643 11.9811C12.0596 12.2372 12.325 12.2693 12.5661 12.3085C12.5764 12.3103 12.5872 12.3085 12.5981 12.3085H12.5975ZM27.4373 12.3103C27.6528 12.2813 27.9227 12.2454 28.0474 11.9956C28.1133 11.8644 27.6944 11.6141 27.4187 11.6103C27.1489 11.6071 26.7728 11.8171 26.7613 11.9773C26.7517 12.1092 27.1278 12.3059 27.4373 12.3103ZM20.0103 12.3085C20.2809 12.3072 20.6537 12.1167 20.648 11.983C20.6403 11.8115 20.2457 11.5958 19.9669 11.6103C19.9458 11.6115 19.9234 11.609 19.9035 11.6147C19.6771 11.6771 19.374 11.7452 19.3842 11.9925C19.3932 12.2151 19.7002 12.2542 19.9157 12.3028C19.9464 12.3097 19.979 12.3072 20.011 12.3085H20.0103Z"/><path fill="#000" d="M19.9999 31.5517C16.4613 31.5517 12.9227 31.5517 9.38417 31.5517C8.89748 31.5517 8.8623 31.517 8.8623 31.0263C8.8623 26.3806 8.8623 21.7349 8.8623 17.0891C8.8623 16.6193 8.91922 16.5625 9.39376 16.5625C16.4709 16.5625 23.548 16.5625 30.6251 16.5625C31.0818 16.5625 31.1483 16.6262 31.1483 17.0677C31.1483 21.7342 31.1483 26.4014 31.1483 31.068C31.1483 31.5069 31.1003 31.5517 30.6475 31.5517C27.0981 31.5517 23.5493 31.5517 19.9999 31.5517ZM25.4302 24.3617C23.832 24.3617 22.2338 24.3668 20.6356 24.3561C20.3881 24.3542 20.3119 24.4141 20.3132 24.6676C20.3241 26.6537 20.3228 28.6391 20.3139 30.6252C20.3126 30.8642 20.3669 30.9475 20.6266 30.9469C23.823 30.938 27.0194 30.9393 30.2158 30.9456C30.4582 30.9456 30.5465 30.8888 30.5452 30.6315C30.535 28.6454 30.535 26.66 30.5452 24.6739C30.5465 24.4273 30.48 24.3542 30.2248 24.3554C28.6266 24.3668 27.0284 24.3611 25.4302 24.3611V24.3617ZM14.5881 24.3617C12.9899 24.3617 11.3917 24.3661 9.79347 24.3567C9.55173 24.3554 9.46347 24.4071 9.46475 24.667C9.47562 26.6531 9.47498 28.6385 9.46603 30.6246C9.46475 30.8699 9.53254 30.9475 9.78708 30.9469C12.9835 30.9393 16.1799 30.9393 19.3757 30.9469C19.6225 30.9469 19.698 30.8844 19.6967 30.6334C19.6865 28.6473 19.6852 26.6619 19.698 24.6758C19.6999 24.3971 19.6001 24.3554 19.3501 24.3567C17.7627 24.3668 16.1754 24.3617 14.5874 24.3617H14.5881ZM25.3758 23.7512C26.9849 23.7512 28.594 23.7462 30.2024 23.7563C30.4633 23.7582 30.5471 23.6894 30.5458 23.4232C30.535 21.4372 30.535 19.4511 30.5458 17.465C30.5471 17.2109 30.4684 17.1547 30.2229 17.1554C27.0264 17.1629 23.8294 17.1629 20.633 17.1554C20.3887 17.1554 20.3113 17.2083 20.3126 17.4631C20.3241 19.4492 20.3235 21.4353 20.3126 23.4214C20.3113 23.6787 20.3727 23.76 20.6445 23.7575C22.2216 23.7449 23.7987 23.7512 25.3752 23.7512H25.3758ZM14.6022 17.161C12.9931 17.161 11.3846 17.1654 9.77556 17.156C9.54597 17.1547 9.46411 17.2001 9.46539 17.4467C9.47562 19.4429 9.47562 21.4397 9.46539 23.4359C9.46411 23.6844 9.53702 23.7563 9.78835 23.7556C12.9848 23.7481 16.1812 23.7481 19.3776 23.7556C19.6289 23.7556 19.6973 23.6863 19.6961 23.439C19.6858 21.4429 19.6865 19.4461 19.6961 17.4499C19.6973 17.2134 19.6347 17.1528 19.3955 17.1541C17.7973 17.1648 16.1991 17.1598 14.6009 17.1598L14.6022 17.161Z"/><path fill="#000" d="M27.939 26.345C27.945 26.464 27.868 26.539 27.792 26.614 26.799 27.595 25.803 28.575 24.812 29.558 24.611 29.757 24.428 29.746 24.235 29.553 23.74 29.061 23.243 28.571 22.746 28.081 22.59 27.927 22.524 27.756 22.697 27.587 22.877 27.412 23.04 27.505 23.191 27.656 23.564 28.031 23.953 28.391 24.316 28.775 24.474 28.942 24.561 28.955 24.733 28.781 25.597 27.91 26.477 27.054 27.35 26.191 27.471 26.071 27.595 25.979 27.77 26.065 27.882 26.12 27.943 26.217 27.938 26.346L27.939 26.345ZM12.52 27.628C12.523 26.353 13.577 25.35 14.911 25.352 16.16 25.354 17.199 26.405 17.198 27.668 17.198 28.957 16.146 29.984 14.838 29.974 13.529 29.964 12.516 28.938 12.52 27.628ZM13.142 27.645C13.141 28.564 13.893 29.352 14.785 29.364 15.77 29.378 16.572 28.633 16.581 27.694 16.591 26.732 15.816 25.96 14.849 25.967 13.887 25.975 13.144 26.706 13.142 27.645L13.142 27.645ZM22.812 20.62C22.809 19.311 23.837 18.305 25.186 18.297 26.428 18.29 27.484 19.344 27.492 20.598 27.499 21.877 26.433 22.931 25.142 22.923 23.838 22.914 22.815 21.903 22.812 20.621L22.812 20.62ZM25.162 18.919C24.212 18.914 23.446 19.648 23.43 20.578 23.414 21.5 24.188 22.314 25.088 22.321 26.068 22.33 26.865 21.575 26.87 20.634 26.875 19.681 26.122 18.925 25.162 18.919ZM17.199 20.613C17.199 21.884 16.176 22.916 14.908 22.924 13.57 22.934 12.52 21.917 12.52 20.61 12.52 19.305 13.559 18.296 14.907 18.297 16.154 18.297 17.199 19.354 17.198 20.613H17.199ZM14.858 18.92C13.906 18.92 13.148 19.657 13.141 20.59 13.134 21.519 13.911 22.325 14.808 22.322 15.793 22.319 16.583 21.561 16.581 20.623 16.579 19.674 15.816 18.919 14.858 18.919V18.92Z"/></svg>