<svg xmlns="http://www.w3.org/2000/svg" width="40" height="40" fill="none" viewBox="0 0 40 40"><path fill="#000" d="M15.7159 38.4854C13.5684 38.4854 11.4208 38.4854 9.27328 38.4854C8.72009 38.4854 8.62658 38.393 8.62501 37.8402C8.62265 36.8358 8.62265 35.8314 8.62501 34.8279C8.6258 34.3144 8.72795 34.2092 9.21356 34.2003C9.88148 34.1883 9.8524 34.1867 9.88698 33.5206C9.97263 31.8549 9.55695 30.2536 9.311 28.6321C9.01476 26.6764 8.66509 24.7295 8.36177 22.7746C8.23683 21.9695 8.53072 21.3002 9.14834 20.79C9.92155 20.1504 10.6995 19.5157 11.4845 18.8914C11.6613 18.7508 11.7108 18.615 11.6817 18.3852C11.1324 14.0953 12.3598 10.3856 15.2932 7.30338C17.7315 4.74023 20.7638 3.42009 24.2487 3.33974C27.494 3.26421 30.4085 4.31358 32.89 6.47899C35.7314 8.95777 37.3069 12.1235 37.4829 15.9417C37.7069 20.7964 35.8084 24.6613 31.9754 27.4944C29.2958 29.475 26.2549 30.1716 22.9781 29.8157C22.6025 29.7747 22.2293 29.6943 21.8592 29.6108C21.6698 29.5682 21.6046 29.6019 21.6054 29.8108C21.6117 31.1896 21.6117 32.5692 21.6054 33.948C21.6046 34.1425 21.6761 34.1915 21.856 34.2043C22.8658 34.2751 22.8658 34.2799 22.8658 35.3252C22.8658 36.1825 22.8681 37.0391 22.865 37.8964C22.8634 38.3584 22.7361 38.4862 22.2756 38.4862C20.0888 38.4878 17.902 38.487 15.7151 38.487L15.7159 38.4854ZM24.5489 7.17723C23.151 7.17562 21.7625 7.51068 20.4613 8.16472C16.981 9.91312 14.9671 13.6478 15.3843 17.5969C15.6436 20.0484 16.7162 22.0692 18.5023 23.7131C18.7365 23.9293 18.8606 23.906 19.0476 23.6625C19.3541 23.2632 19.6771 22.8719 20.0299 22.5151C20.6059 21.931 21.3201 21.7341 22.091 21.9776C22.8799 22.2267 23.3977 22.7787 23.5895 23.6296C23.7435 24.3109 23.503 24.8886 23.2013 25.4639C22.9766 25.8922 22.986 25.8906 23.4724 25.9621C24.2692 26.0802 25.066 26.0682 25.8596 25.9484C30.715 25.2205 34.0593 20.7209 33.7355 16.0261C33.3945 11.0862 29.4019 7.18205 24.5505 7.17642L24.5489 7.17723ZM12.3968 16.7155C12.3779 17.4523 12.4683 18.3434 12.6584 19.2216C13.2478 21.9366 14.5891 24.1944 16.6266 26.0304C16.8388 26.2216 16.948 26.1967 17.113 25.979C17.3936 25.6094 17.6914 25.2502 18.0104 24.9152C18.2273 24.687 18.1872 24.5697 17.968 24.364C15.2641 21.8346 14.0603 18.709 14.6158 14.9864C15.444 9.43505 20.6821 5.29625 26.6132 6.56416C33.1147 7.95421 36.4685 15.2194 33.4958 21.2882C31.544 25.2735 27.1153 27.5353 22.8076 26.7294C22.601 26.6909 22.5538 26.7752 22.4886 26.9094C22.267 27.3642 22.0462 27.819 21.8246 28.2738C21.6258 28.6811 21.6242 28.6876 22.0713 28.7751C25.9822 29.5352 29.4671 28.6088 32.5065 25.9822C36.8716 22.2106 37.9858 15.5079 35.0981 10.4724C32.0539 5.16448 26.1118 2.91791 20.4298 4.92825C15.6829 6.60755 12.3606 11.4141 12.3968 16.7155ZM11.9159 19.6884C11.7752 19.6844 11.7084 19.7776 11.6291 19.8419C11.0051 20.3513 10.393 20.8768 9.75732 21.3701C9.27485 21.7446 9.10591 22.2186 9.20335 22.8132C9.47523 24.4612 9.76361 26.1067 10.0158 27.7579C10.3254 29.7883 10.8496 31.7963 10.7034 33.8797C10.6798 34.2148 10.8747 34.2011 11.0987 34.2011C14.1884 34.1987 17.2788 34.1955 20.3685 34.2052C20.6679 34.206 20.7717 34.1328 20.7677 33.8074C20.7512 32.1876 20.7638 30.5677 20.7575 28.9471C20.7567 28.6715 20.8094 28.4232 20.9312 28.1773C21.4922 27.0444 22.0446 25.9075 22.5986 24.7705C22.9349 24.0811 22.799 23.4134 22.2481 23.0245C21.6431 22.5979 20.9893 22.6903 20.4644 23.3098C19.2205 24.7762 17.99 26.2538 16.7484 27.7218C16.6188 27.8752 16.5716 28.0303 16.5756 28.2288C16.5858 28.7912 16.5528 29.3553 16.5881 29.9153C16.6117 30.2881 16.4797 30.3476 16.1497 30.3564C15.7843 30.3653 15.7104 30.2311 15.7261 29.8936C15.7521 29.3456 15.7529 28.7952 15.7261 28.2472C15.7057 27.8206 15.7804 27.451 16.1072 27.1641C16.3288 26.9697 16.2998 26.8435 16.0703 26.6451C14.8798 25.615 13.9157 24.3921 13.1645 22.9916C12.6026 21.9446 12.1995 20.8366 11.9143 19.6868L11.9159 19.6884ZM15.7552 35.0432C13.7782 35.0432 11.8011 35.0488 9.82412 35.0368C9.54281 35.0352 9.42965 35.0898 9.44223 35.4072C9.46737 36.0355 9.45794 36.6655 9.44537 37.2946C9.44065 37.5308 9.49802 37.62 9.74868 37.62C13.742 37.6128 17.7354 37.612 21.7295 37.62C21.9896 37.62 22.0305 37.518 22.0258 37.2906C22.014 36.7016 21.999 36.111 22.0305 35.5237C22.0501 35.1493 21.9637 35.0271 21.5692 35.0319C19.6315 35.0561 17.6937 35.0424 15.756 35.0424L15.7552 35.0432Z"/><path fill="#000" d="M24.1238 18.7153C24.1238 18.2734 24.112 17.8314 24.1285 17.3895C24.1387 17.126 24.0947 17.0063 23.7906 16.9476C22.5349 16.7057 21.6242 15.6612 21.61 14.5106C21.5959 13.4162 22.4123 12.391 23.5478 12.076C23.9323 11.9694 24.1246 11.7131 24.1246 11.3071C24.1246 11.2532 24.1246 11.2002 24.1246 11.1464C24.1246 10.649 24.376 10.4714 24.8435 10.6225C24.9897 10.6699 24.9811 10.7816 24.9646 10.8764C24.831 11.6228 25.0675 12.0053 25.8423 12.2343C26.6815 12.4818 27.2143 13.176 27.3832 14.104C27.4264 14.3435 27.4013 14.4391 27.1341 14.4463C26.7978 14.4552 26.5801 14.4367 26.4733 14.0068C26.32 13.3905 25.8163 13.0691 25.2451 12.8731C25.0392 12.8024 24.9724 12.8747 24.974 13.0965C24.9834 14.0606 24.9897 15.0248 24.9708 15.9882C24.9653 16.2759 25.1445 16.2662 25.3142 16.3104C26.4316 16.5989 27.2205 17.2377 27.4429 18.4485C27.6252 19.4384 27.0327 20.4838 26.0246 20.9787C25.825 21.0768 25.6136 21.1892 25.4007 21.2077C25.0101 21.2415 24.9276 21.4472 24.9748 21.7911C24.9913 21.9092 24.9622 22.0345 24.9803 22.1518C25.04 22.5335 24.9056 22.6669 24.5167 22.6468C24.2188 22.6315 24.0915 22.5688 24.123 22.2418C24.1497 21.9638 24.2008 21.648 24.1033 21.4078C23.9949 21.1394 23.6248 21.2174 23.3804 21.1113C22.5349 20.7433 21.9283 20.1656 21.7263 19.2199C21.6965 19.0793 21.5723 18.8157 21.8379 18.8238C22.0721 18.831 22.4398 18.5763 22.5467 19.0415C22.7109 19.7566 23.1918 20.1407 23.8322 20.3769C24.0546 20.4589 24.1356 20.4139 24.1285 20.1608C24.1143 19.6795 24.1246 19.1966 24.1246 18.7145L24.1238 18.7153ZM24.123 14.5194C24.123 14.0253 24.1253 13.5311 24.1214 13.0378C24.1206 12.9325 24.1678 12.7686 23.9588 12.8209C23.1321 13.0265 22.3487 13.7071 22.4681 14.6842C22.564 15.466 23.2405 15.9521 23.958 16.1377C24.1662 16.1915 24.1206 16.0284 24.1214 15.9215C24.1253 15.4539 24.123 14.9871 24.123 14.5194ZM24.9677 18.7739C24.9677 19.2408 24.9661 19.7076 24.9685 20.1736C24.9685 20.303 24.9355 20.4364 25.1681 20.389C25.9444 20.2315 26.6202 19.5043 26.6343 18.7772C26.6477 18.062 26.0246 17.3397 25.2443 17.1517C25.0416 17.1027 24.9583 17.142 24.9646 17.3735C24.9771 17.8395 24.9685 18.3063 24.9685 18.7731L24.9677 18.7739Z"/></svg>