<svg xmlns="http://www.w3.org/2000/svg" width="40" height="40" fill="none" viewBox="0 0 40 40"><path fill="#090909" d="M18.5934 20.351C14.4862 20.351 10.3789 20.3541 6.27238 20.344C5.98985 20.344 5.85367 20.4222 5.78402 20.6938C5.6134 21.359 5.30191 21.9531 4.83389 22.4626C4.63902 22.6754 4.58658 22.9392 4.58658 23.2233C4.58893 26.3006 4.59049 29.3772 4.58267 32.4545C4.58267 32.7065 4.64684 32.7887 4.90824 32.7808C5.52027 32.7613 6.13385 32.7668 6.74666 32.7793C6.93449 32.7832 7.02763 32.7221 7.08711 32.5461C7.22015 32.1524 8.00989 30.6996 8.15076 30.3083C8.23451 30.0758 8.37147 29.9028 8.64069 29.9905C8.94123 30.0891 8.91697 30.327 8.82853 30.5681C8.64852 31.0557 7.82357 32.6063 7.65139 33.0962C7.55669 33.3655 7.3939 33.4899 7.10119 33.4868C6.17533 33.4766 5.24947 33.4782 4.3244 33.486C3.98943 33.4883 3.85168 33.3248 3.85168 33.0078C3.85168 29.7348 3.85012 26.4626 3.85403 23.1896C3.85403 22.7474 3.99569 22.3475 4.28448 22.0032C4.63902 21.5805 4.89885 21.1102 5.07416 20.5819C5.16808 20.2986 5.08434 20.2391 4.83233 20.1906C4.2837 20.0841 3.73742 19.9597 3.19505 19.8243C2.52433 19.6568 2.29737 19.0268 2.69886 18.468C2.82017 18.2989 2.95478 18.1393 3.08313 17.9749C3.28114 17.7221 3.53472 17.6032 3.86186 17.6087C4.50049 17.6196 5.13991 17.5977 5.77854 17.618C6.05089 17.6267 6.17768 17.5492 6.27238 17.2807C6.77796 15.8477 7.30859 14.4233 7.83061 12.9966C8.39568 11.4517 9.49058 10.6221 11.1294 10.6135C16.1101 10.5868 21.0908 10.5821 26.0715 10.5884C27.5914 10.5908 28.7255 11.4086 29.2655 12.8416C29.8243 14.3239 30.3643 15.8141 30.8981 17.3058C30.981 17.5367 31.0796 17.6259 31.3332 17.618C32.011 17.5977 32.6887 17.6071 33.3673 17.6126C33.9363 17.6165 34.7353 18.4304 34.7361 18.9986C34.7361 19.4048 34.5076 19.71 34.0881 19.8118C33.4941 19.9558 32.8953 20.0818 32.2974 20.2086C32.0939 20.2516 31.9891 20.2978 32.083 20.5568C32.2677 21.0616 32.4696 21.5469 32.8374 21.9515C33.1779 22.3256 33.3133 22.7819 33.3133 23.2804C33.3141 26.501 33.3148 29.7215 33.3133 32.9421C33.3133 33.3639 33.1967 33.4805 32.7858 33.4821C31.8857 33.4852 30.9865 33.475 30.0872 33.4876C29.7789 33.4923 29.6059 33.3702 29.5073 33.0829C29.3437 32.604 28.6798 31.0941 28.5022 30.6198C28.4129 30.3819 28.3628 30.1408 28.6579 30.0281C28.9428 29.9193 29.0844 30.104 29.1729 30.3537C29.3122 30.745 29.9526 32.1673 30.0857 32.5601C30.1412 32.7245 30.2258 32.7801 30.3956 32.7777C31.0475 32.7691 31.6995 32.7699 32.3514 32.7777C32.5181 32.7793 32.5917 32.7229 32.5807 32.5547C32.5745 32.4639 32.5807 32.3723 32.5807 32.2807C32.5807 29.3474 32.576 26.4133 32.5862 23.48C32.5878 23.0018 32.4946 22.5894 32.1495 22.234C31.741 21.8122 31.5375 21.269 31.3888 20.7149C31.3105 20.4238 31.1782 20.344 30.8793 20.3448C26.7853 20.3565 22.6913 20.3526 18.5973 20.3526L18.5934 20.351ZM6.16046 19.6443C6.33734 19.6443 6.45395 19.6443 6.57135 19.6443C14.5605 19.6396 22.5497 19.6349 30.5388 19.6302C30.831 19.6302 30.9291 19.4969 30.8331 19.2303C30.6476 18.7177 30.4613 18.205 30.2735 17.6924C29.7061 16.1443 29.1473 14.5932 28.5658 13.0506C28.1706 12.0026 27.4036 11.3945 26.2742 11.3429C25.2858 11.2975 24.2942 11.317 23.3041 11.317C19.29 11.3147 15.2758 11.3194 11.2617 11.3147C10.0916 11.3131 9.12822 11.7303 8.6876 12.8471C7.80792 15.0784 7.01041 17.3433 6.16046 19.6443ZM31.2792 18.3287C31.4224 18.7208 31.5563 19.0698 31.6752 19.4236C31.7183 19.5535 31.7887 19.5817 31.9084 19.5559C32.5424 19.4173 33.1771 19.2827 33.8095 19.1403C33.8877 19.1231 33.9996 19.116 33.991 18.9822C33.9801 18.799 33.4894 18.3318 33.2929 18.3302C32.6433 18.3263 31.993 18.3287 31.2792 18.3287ZM5.87558 18.3287C5.31209 18.3287 4.7885 18.367 4.27431 18.3177C3.81334 18.2739 3.55272 18.4672 3.32497 18.828C3.19897 19.0268 3.23497 19.1027 3.43845 19.1481C4.03404 19.2827 4.63119 19.4158 5.22756 19.548C5.33087 19.5707 5.42792 19.5958 5.47722 19.4494C5.6001 19.0839 5.73471 18.7216 5.87558 18.3287Z"/><path fill="#060606" d="M17.7292 31.4723C14.7481 31.4465 11.2357 31.1546 7.76152 30.4697C7.55804 30.4298 7.35534 30.3821 7.1542 30.332C6.91002 30.2717 6.73549 30.1324 6.8114 29.8616C6.88654 29.594 7.11976 29.5736 7.35455 29.619C8.04327 29.7536 8.7273 29.9203 9.42071 30.0252C10.5141 30.1903 11.6144 30.3117 12.7101 30.4619C12.9481 30.4948 13.0874 30.4064 13.229 30.2232C13.6923 29.6268 14.1823 29.0508 14.6495 28.4576C15.0048 28.006 15.4431 27.79 16.0293 27.797C17.6846 27.8158 19.3399 27.8119 20.9951 27.7986C21.5344 27.7939 21.9507 27.9943 22.2826 28.4044C22.7733 29.0125 23.2726 29.6135 23.7531 30.2303C23.8972 30.4157 24.0412 30.4854 24.2775 30.4572C26.0353 30.2483 27.7884 30.0088 29.5235 29.6511C29.5744 29.6409 29.6245 29.6237 29.6754 29.6143C29.9289 29.5697 30.1379 29.6495 30.1794 29.9133C30.2177 30.1575 30.0549 30.2749 29.8131 30.3242C28.2823 30.6364 26.742 30.8916 25.1901 31.0732C22.8969 31.3424 20.5944 31.4527 17.73 31.4723H17.7292ZM23.0769 30.5504C22.562 29.9149 22.1065 29.3506 21.6479 28.7871C21.4882 28.5914 21.2745 28.5202 21.0264 28.5202C19.3344 28.5218 17.6415 28.521 15.9495 28.521C15.7358 28.521 15.5292 28.5539 15.3836 28.7292C14.8953 29.3169 14.4108 29.9086 13.8731 30.5621C16.9653 30.7945 19.9832 30.8125 23.0769 30.5504Z"/><path fill="#0c0c0c" d="M9.77458 26.2763C9.05769 26.2763 8.34158 26.281 7.62468 26.2747C6.86396 26.2684 6.52664 25.9327 6.51725 25.1774C6.51255 24.7869 6.50238 24.3948 6.52116 24.0051C6.5556 23.3062 7.05883 22.9266 7.74129 23.0565C9.19778 23.3343 10.6535 23.6106 12.1115 23.8806C13.0186 24.0489 13.4444 25.1821 12.8691 25.9147C12.6476 26.1964 12.3424 26.2771 12.002 26.2763C11.2592 26.2755 10.5165 26.2763 9.7738 26.2763H9.77458ZM9.78711 25.5406C10.5157 25.5406 11.2444 25.5398 11.973 25.5406C12.1655 25.5406 12.3682 25.5406 12.3448 25.2737C12.3236 25.0303 12.4982 24.6867 12.0779 24.6069C10.5846 24.3244 9.08978 24.0505 7.59729 23.7671C7.32806 23.7163 7.24354 23.8321 7.24823 24.0802C7.25528 24.4441 7.26467 24.8096 7.24588 25.1728C7.22945 25.4749 7.3625 25.5492 7.63955 25.5437C8.35488 25.5296 9.07099 25.539 9.78632 25.539L9.78711 25.5406Z"/><path fill="#0b0b0b" d="M27.4956 26.2728C26.7787 26.2728 26.0618 26.2775 25.3449 26.2712C24.6718 26.265 24.2954 25.9449 24.2531 25.3571C24.1835 24.396 24.4253 24.018 25.1805 23.8795C26.6519 23.6087 28.1225 23.3332 29.5923 23.0554C30.27 22.927 30.7819 23.3199 30.8069 24.0133C30.8218 24.4172 30.8155 24.8218 30.8085 25.2256C30.7967 25.8964 30.4406 26.2595 29.7629 26.2697C29.0068 26.2814 28.2508 26.272 27.4948 26.2728H27.4956ZM27.5245 25.5371C28.2673 25.5371 29.0108 25.5301 29.7535 25.541C29.9922 25.5449 30.0845 25.451 30.0814 25.2217C30.0759 24.8304 30.0814 24.4399 30.0791 24.0485C30.0775 23.8224 29.9851 23.7175 29.7363 23.7645C28.2406 24.047 26.7435 24.3209 25.2463 24.5987C24.8166 24.6786 25.0013 25.0198 24.9755 25.2609C24.9481 25.5183 25.1297 25.541 25.3339 25.5395C26.0641 25.5332 26.7936 25.5371 27.5238 25.5371H27.5245Z"/><path fill="#ffc422" d="M31.2793 18.5007C31.9931 18.5007 32.6434 18.4984 33.293 18.5023C33.4895 18.503 33.9794 18.9711 33.9911 19.1542C33.9997 19.2872 33.887 19.2943 33.8096 19.3123C33.1764 19.4547 32.5425 19.5901 31.9085 19.7279C31.7896 19.7537 31.7191 19.7255 31.6753 19.5956C31.5571 19.2419 31.4225 18.8936 31.2793 18.5007Z"/><path fill="#fff" stroke="#000" stroke-width="0.833333" d="M30.1313 5.37207C34.4308 5.37207 37.9164 8.85776 37.9165 13.1572C37.9165 17.4568 34.4309 20.9424 30.1313 20.9424C25.8319 20.9422 22.3462 17.4567 22.3462 13.1572C22.3463 8.85785 25.832 5.37221 30.1313 5.37207Z"/><path stroke="#000" stroke-linecap="round" stroke-linejoin="round" stroke-width="0.833333" d="M27.1841 13.1583L29.763 15.3688L33.8157 10.2109"/></svg>