<svg xmlns="http://www.w3.org/2000/svg" width="40" height="40" fill="none" viewBox="0 0 40 40"><path fill="#ffc422" stroke="#222" stroke-width="0.5" d="M27.1392 7.75L27.0718 8.05469L25.0015 17.3701L26.8013 15.1943L26.8032 15.1914L33.0708 7.83789L33.145 7.75H39.1851L38.8403 8.16113L30.3462 18.2871L34.7368 31.3486L34.8481 31.6787H28.1343L28.0806 31.501L25.6714 23.5596L22.9653 26.5303L21.8657 31.4824L21.8218 31.6787H16.1313L16.1987 31.374L21.4048 7.94531L21.4487 7.75H27.1392Z"/><path fill="#222" d="M18.5 21.5C18.5 21.5 22.3074 18.5051 22.5 16C22.9329 10.3667 21 9.5 21 9.5C21 9.5 24.3514 10.0397 23.5 16C23 19.5 20 21 18.5 21.5Z"/><path fill="#ffc422" stroke="#222" stroke-width="0.5" d="M15.1774 7.75595C17.0417 7.75597 18.5858 8.09019 19.7979 8.76932H19.7969C21.0153 9.44592 21.865 10.3808 22.3387 11.574H22.3397C22.8157 12.7571 22.8821 14.1076 22.5465 15.6179C22.2154 17.108 21.5573 18.4199 20.5657 19.5436C19.5753 20.666 18.3211 21.5377 16.8141 22.1614H16.8131C15.3158 22.7758 13.6335 23.0785 11.7724 23.0785H8.50775L6.76806 31.4256L6.7171 31.6725H0.697566L0.749422 31.4304L5.73896 8.00191L5.79166 7.75595H15.1774Z"/><path fill="#fff" stroke="#222" stroke-linecap="round" stroke-width="0.5" d="M14.5576 11.25C16.7444 11.25 18.4203 13.1935 18.0986 15.3564C17.8495 17.0306 16.462 18.3019 14.7724 18.4033L9.31149 18.7295L10.8701 11.25H14.5576Z"/><path fill="#222" d="M35 31.5L31 21L33.5 31L28.5 31.5H35Z"/></svg>