<svg xmlns="http://www.w3.org/2000/svg" width="343" height="192" fill="none" viewBox="0 0 343 192"><rect width="343" height="192" fill="#f8f8f8" rx="8"/><path fill="#ddd" d="m121.488 64 9.639 25.366h-6.885l-6.334-18.003h-.367l-4.867 13.406h5.785v4.597H104L114.006 64zm19.455 17.736c0 1.758 1.831 3.219 4.091 3.219h2.883c2.26 0 4.091-1.46 4.091-3.22V64h5.961v18.004c0 4.053-4.247 7.362-9.584 7.362h-3.78c-5.299 0-9.662-3.308-9.662-7.362V64h6zm43.553-13.056h-7.732v20.686h-7.344V68.68h-7.635V64h22.711zM213.158 64C226.878 64 238 75.143 238 88.888c0 11.357-7.594 20.937-17.972 23.923l-4.725-12.641a11.48 11.48 0 0 0 9.32-11.282c0-6.344-5.133-11.487-11.465-11.487s-11.465 5.143-11.465 11.487q.002.225.011.446h-13.382q-.004-.222-.005-.446c0-13.745 11.122-24.888 24.841-24.888"/><path fill="#ddd" d="M211.773 84.242a4.83 4.83 0 0 0-2.792 2.191l-6.789-4.284-1.468 6.064 7.618.13a4.86 4.86 0 0 0 1.784 4.351 4.84 4.84 0 0 0 4.677.78l2.379 7.636 5.205-3.426-5.821-5.32q.201-.199.383-.423a4.86 4.86 0 0 0 1.023-3.674l7.735.114-1.413-6.077-6.996 4.05a4.9 4.9 0 0 0-1.101-1.247 4.8 4.8 0 0 0-2.172-.993l2.23-6.682-6.227.01z"/><path fill="#ddd" d="M201.709 79.634c5.068-6.335 14.304-7.353 20.627-2.275s7.34 14.33 2.272 20.664a14.6 14.6 0 0 1-8.185 5.138l-.566-1.512a13 13 0 0 0 2.61-.839l-4.269-9.597a2.53 2.53 0 0 1-2.618-.333 2.54 2.54 0 0 1-.896-2.487l-10.432-1.707a13 13 0 0 0-.163 2.648h-1.595a14.66 14.66 0 0 1 3.215-9.7m13.843 8.432a2.54 2.54 0 0 1-.691 2.713l6.828 7.988a13 13 0 0 0 1.676-1.74l.104-.133a13.08 13.08 0 0 0 2.66-9.74zm-4.422-12.183a13.03 13.03 0 0 0-8.179 4.75l-.105.132a13 13 0 0 0-1.424 2.271l9.536 4.626q.099-.18.229-.348a2.52 2.52 0 0 1 1.288-.852zm3.825-.031-1.718 10.516a2.52 2.52 0 0 1 1.977 1.048l9.901-3.901a13.05 13.05 0 0 0-3.645-4.805l-.129-.106a13 13 0 0 0-6.414-2.761z"/><path fill="#ddd" d="M162.99 128h-8.6l-7.913-22.814h-.459l-6.08 16.696h7.226V128h-17.776l7.377-20.128 4.838-12.705h9.346zm12.4-26.38h-7.227l6.079 17.21h.459l7.913-23.663h8.601L179.174 128h-9.347L157.85 95.167h17.54zM219.369 128h-8.6l-7.914-22.814h-.459l-5.563 16.696h7.226V128h-18.062l11.984-32.833h9.347zm-86.419-26.38h-17.912q-2.76 0-2.76 2.766v14.749q0 1.06.599 1.705.644.599 1.609.599h11.201l-2.392 6.523c-3.297-.031-7.886-.07-10.557-.07q-4.506 0-6.622-2.121T104 119.135v-14.749q0-4.84 2.162-7.006 2.208-2.213 7.036-2.213h22.117z"/></svg>