<svg xmlns="http://www.w3.org/2000/svg" width="120" height="120" fill="none" viewBox="0 0 120 120"><path fill="#e6e6e6" d="M63.7939 95.2599C63.7939 95.2599 63.7637 101.385 63.739 106.379C49.9644 105.996 14.6247 98.0161 14.7348 94.0543C14.8449 90.0925 25.2776 87.0105 39.0521 87.3933C52.8267 87.7761 63.7939 95.2599 63.7939 95.2599Z"/><path fill="#fff" stroke="#000" d="M65.641 106.584L23.6145 96.9226C23.0278 96.7877 22.6206 96.2538 22.6457 95.6523L24.065 61.5879C24.0866 61.0694 24.4263 60.6182 24.9187 60.4541L47.8014 52.8265C47.9823 52.7662 48.1747 52.7481 48.3637 52.7736L91.4632 58.5848C92.0768 58.6675 92.5373 59.1869 92.5461 59.806L93.019 93.3813C93.0259 93.8747 92.742 94.326 92.2942 94.5332L66.4462 106.5C66.1946 106.616 65.9113 106.646 65.641 106.584Z"/><path fill="#f8f8f8" stroke="#000" d="M64.5457 106.332L23.6145 96.9226C23.0278 96.7877 22.6206 96.2538 22.6457 95.6523L24.065 61.5879C24.0866 61.0694 24.4263 60.6182 24.9187 60.4541L47.8014 52.8265C47.9823 52.7662 48.1747 52.7481 48.3637 52.7736L86.8602 57.9641C88.19 58.1434 88.3414 60.0069 87.0579 60.3985L67.3884 66.3997C66.8675 66.5586 66.5094 67.0365 66.5032 67.581L66.0756 105.128C66.0666 105.926 65.323 106.511 64.5457 106.332Z"/><path stroke="#000" d="M66.0579 106.68L66.5574 67.2207"/><path fill="#ffc422" d="M29.0958 61.2258L48.5758 54.7324L90.0334 59.2278L66.0579 66.7202L29.0958 61.2258Z"/><path fill="#fff" stroke="#000" d="M58.976 82.773 66.058 66.721 24.967 60.851C24.447 60.777 23.936 61.035 23.688 61.498L17.393 73.248C17 73.982 17.42 74.887 18.233 75.061L57.571 83.49C58.15 83.615 58.737 83.315 58.976 82.773ZM75.511 80.996 66.567 66.875 91.266 58.973C91.732 58.824 92.243 58.961 92.572 59.323L102.297 70.015C102.889 70.666 102.641 71.71 101.818 72.024L77.013 81.495C76.457 81.707 75.829 81.499 75.511 80.996Z"/><path stroke="#222" stroke-linecap="round" d="M71.2854 13.9697L69.4301 19.5833"/><path stroke="#000" stroke-linecap="round" stroke-opacity="0.2" d="M71.2854 13.9697L69.4301 19.5833"/><path stroke="#222" stroke-linecap="round" d="M82.1731 26.0547L74.4301 27.9167"/><path stroke="#000" stroke-linecap="round" stroke-opacity="0.2" d="M82.1731 26.0547L74.4301 27.9167"/><path stroke="#222" stroke-linecap="round" d="M81.0845 15.1196L73.0428 23.0072"/><path stroke="#000" stroke-linecap="round" stroke-opacity="0.2" d="M81.0845 15.1196L73.0428 23.0072"/><path stroke="#000" stroke-linecap="round" d="M89.273 44.46 93.206 40.526M93.206 44.459 89.273 40.526M13.064 82.285 16.997 78.351M16.997 82.285 13.064 78.351"/><path fill="#ffc422" stroke="#222" stroke-width="0.8" d="M59.3668 47.8984H61.8795C62.3546 47.8984 62.7359 48.282 62.7359 48.752V51.251C62.7358 51.4754 62.6463 51.6912 62.4859 51.8506C62.3255 52.01 62.1073 52.0996 61.8795 52.0996H59.3668C59.1388 52.0996 58.9198 52.0101 58.7594 51.8506C58.5991 51.6912 58.5095 51.4753 58.5094 51.251V48.752C58.5094 48.282 58.8916 47.8984 59.3668 47.8984ZM60.2672 22.9004C63.0068 22.9004 65.2825 23.5175 67.1197 24.7334L67.481 24.9844C69.3362 26.3344 70.2798 28.337 70.2799 31.0566C70.2799 32.7174 69.8709 34.0923 69.068 35.1982L69.0641 35.2041C68.5981 35.8716 67.6736 36.7607 66.2486 37.876L64.8424 38.9766H64.8414C64.0227 39.6185 63.4585 40.3785 63.1773 41.2695L63.1734 41.2812L63.1705 41.2949C63.0681 41.7141 63.0043 42.1416 62.9791 42.5723C62.9603 42.783 62.8625 42.9795 62.7047 43.123C62.5467 43.2667 62.3396 43.3468 62.1246 43.3467H59.3111C59.1916 43.3468 59.0727 43.3222 58.9635 43.2744C58.8544 43.2266 58.7565 43.1566 58.6764 43.0693C58.5962 42.9821 58.5354 42.8792 58.4977 42.7676C58.4599 42.6561 58.446 42.538 58.4566 42.4209C58.5372 41.5571 58.6206 40.8562 58.7057 40.3174C58.7922 39.7692 58.8765 39.4175 58.9508 39.2334L58.9518 39.2314C59.2165 38.566 59.871 37.7721 60.982 36.8369L61.4869 36.4277L62.9283 35.292C63.1534 35.1205 63.9141 34.5808 64.6109 33.8936C64.96 33.5493 65.3057 33.1566 65.566 32.7402C65.8242 32.3272 66.0182 31.8598 66.0182 31.375C66.0182 30.5959 65.9499 30.0198 65.7623 29.5195C65.5728 29.0143 65.2737 28.6209 64.8766 28.1895V28.1885L64.69 28.0088C64.2309 27.6124 63.6002 27.3636 62.942 27.208C62.1793 27.0278 61.3241 26.96 60.524 26.96C58.9511 26.96 57.4531 27.3674 56.6998 28.5771C56.3881 29.0732 56.1348 29.6036 55.9449 30.1572L55.943 30.1641C55.8559 30.4334 55.7892 30.7089 55.7437 30.9883C55.7097 31.1848 55.6068 31.3639 55.4527 31.4932C55.2985 31.6225 55.1024 31.6941 54.9 31.6943H51.9371C51.8161 31.6944 51.6968 31.6682 51.5865 31.6191C51.4762 31.57 51.3777 31.4985 51.2975 31.4092C51.2173 31.3199 51.1571 31.2152 51.1207 31.1016C51.0844 30.9878 51.072 30.8675 51.0855 30.749C51.1161 30.4834 51.1499 30.2558 51.1803 30.0781L51.1812 30.0791C51.6552 27.4536 52.8437 25.56 54.7291 24.3574L54.731 24.3555C56.214 23.3925 58.0511 22.9004 60.2672 22.9004Z"/><path fill="#fff" stroke="#222" stroke-width="0.8" d="M56.8667 47.8984H59.3794C59.8545 47.8984 60.2358 48.282 60.2358 48.752V51.251C60.2358 51.4754 60.1462 51.6912 59.9858 51.8506C59.8254 52.01 59.6072 52.0996 59.3794 52.0996H56.8667C56.6387 52.0996 56.4198 52.0101 56.2593 51.8506C56.099 51.6912 56.0094 51.4753 56.0093 51.251V48.752C56.0093 48.282 56.3915 47.8984 56.8667 47.8984ZM57.7671 22.9004C60.5067 22.9004 62.7824 23.5175 64.6196 24.7334L64.981 24.9844C66.8361 26.3344 67.7797 28.337 67.7798 31.0566C67.7798 32.7174 67.3708 34.0923 66.5679 35.1982L66.564 35.2041C66.098 35.8716 65.1735 36.7607 63.7485 37.876L62.3423 38.9766H62.3413C61.5226 39.6185 60.9584 40.3785 60.6772 41.2695L60.6733 41.2812L60.6704 41.2949C60.568 41.7141 60.5042 42.1416 60.479 42.5723C60.4602 42.783 60.3624 42.9795 60.2046 43.123C60.0466 43.2667 59.8395 43.3468 59.6245 43.3467H56.811C56.6915 43.3468 56.5726 43.3222 56.4634 43.2744C56.3543 43.2266 56.2564 43.1566 56.1763 43.0693C56.0961 42.9821 56.0354 42.8792 55.9976 42.7676C55.9598 42.6561 55.9459 42.538 55.9565 42.4209C56.0371 41.5571 56.1205 40.8562 56.2056 40.3174C56.2921 39.7692 56.3764 39.4175 56.4507 39.2334L56.4517 39.2314C56.7164 38.566 57.3709 37.7721 58.4819 36.8369L58.9868 36.4277L60.4282 35.292C60.6533 35.1205 61.414 34.5808 62.1108 33.8936C62.4599 33.5493 62.8056 33.1566 63.0659 32.7402C63.3241 32.3272 63.5181 31.8598 63.5181 31.375C63.5181 30.5959 63.4498 30.0198 63.2622 29.5195C63.0727 29.0143 62.7736 28.6209 62.3765 28.1895V28.1885L62.1899 28.0088C61.7309 27.6124 61.1001 27.3636 60.4419 27.208C59.6792 27.0278 58.824 26.96 58.0239 26.96C56.451 26.96 54.9531 27.3674 54.1997 28.5771C53.888 29.0732 53.6347 29.6036 53.4448 30.1572L53.4429 30.1641C53.3558 30.4334 53.2891 30.7089 53.2437 30.9883C53.2096 31.1848 53.1067 31.3639 52.9526 31.4932C52.7984 31.6225 52.6023 31.6941 52.3999 31.6943H49.437C49.3161 31.6944 49.1967 31.6682 49.0864 31.6191C48.9761 31.57 48.8776 31.4985 48.7974 31.4092C48.7172 31.3199 48.657 31.2152 48.6206 31.1016C48.5843 30.9878 48.5719 30.8675 48.5854 30.749C48.616 30.4834 48.6498 30.2558 48.6802 30.0781L48.6812 30.0791C49.1551 27.4536 50.3436 25.56 52.229 24.3574L52.231 24.3555C53.7139 23.3925 55.551 22.9004 57.7671 22.9004Z"/></svg>