<svg xmlns="http://www.w3.org/2000/svg" width="40" height="40" fill="none" viewBox="0 0 40 40"><path fill="#ffc422" stroke="#222" stroke-width="0.44" d="M.22 20.22H27.779999999999998V22.25059H.22z"/><path fill="#ffc422" stroke="#222" stroke-width="0.44" d="M7.41 17.21C9.63564 17.21 11.4402 19.0146 11.4403 21.2402C11.4402 23.4659 9.63567 25.2705 7.41 25.2705C5.18435 25.2704 3.37977 23.4659 3.37973 21.2402C3.3798 19.0146 5.18438 17.21 7.41 17.21Z"/><path fill="#fff" stroke="#222" stroke-width="0.44" d="M7.41208 18.7886C8.7632 18.7887 9.85837 19.8847 9.85837 21.2358C9.85821 22.5869 8.76311 23.682 7.41208 23.6821C6.0609 23.6821 4.96497 22.587 4.96481 21.2358C4.96481 19.8846 6.06081 18.7886 7.41208 18.7886Z"/><path fill="#ffc422" stroke="#222" stroke-width="0.44" d="M.22 30.22H27.779999999999998V32.25059H.22z"/><path fill="#ffc422" stroke="#222" stroke-width="0.44" d="M14.41 27.21C16.6356 27.21 18.4402 29.0146 18.4403 31.2402C18.4402 33.4659 16.6357 35.2705 14.41 35.2705C12.1843 35.2704 10.3798 33.4659 10.3797 31.2402C10.3798 29.0146 12.1844 27.21 14.41 27.21Z"/><path fill="#fff" stroke="#222" stroke-width="0.44" d="M14.4121 28.7886C15.7632 28.7887 16.8584 29.8847 16.8584 31.2358C16.8582 32.5869 15.7631 33.682 14.4121 33.6821C13.0609 33.6821 11.965 32.587 11.9648 31.2358C11.9648 29.8846 13.0608 28.7886 14.4121 28.7886Z"/><path fill="#ffc422" stroke="#222" stroke-width="0.5" d="M32.0915 24.9179L33.7701 28.3594L32.2744 29.0889L30.5959 25.6473L32.0915 24.9179Z"/><path fill="#ffc422" stroke="#222" stroke-width="0.5" d="M35.5007 26.8547L39.0363 36.6279L35.5482 38.3291L30.0236 29.526L35.5007 26.8547Z"/><path fill="#222" d="M0 0H4.32901V1.64392H0z" transform="rotate(-26 97.878 -56.642)"/><path fill="#ffc422" stroke="#222" stroke-width="0.5" d="M30.069 2.74693C36.5179 4.96773 39.9455 11.9962 37.7249 18.4453C35.5041 24.894 28.4764 28.3217 22.0274 26.1014C15.5784 23.8808 12.15 16.8527 14.3704 10.4037L14.478 10.103C16.7736 3.94779 23.5021 0.66608 29.7658 2.64666L30.069 2.74693Z"/><path fill="#fff" stroke="#222" stroke-width="0.5" d="M29.1898 5.29948C34.2289 7.03472 36.9068 12.5265 35.1717 17.5656C33.4365 22.6046 27.9455 25.2827 22.9064 23.5478C17.8673 21.8127 15.1884 16.3214 16.9234 11.2822L17.0972 10.8164C18.9402 6.23265 23.969 3.77996 28.7157 5.14965L29.1898 5.29948Z"/><path fill="#ffc422" stroke="#222" stroke-width="0.5" d="M28.3106 7.85251C31.9398 9.10222 33.869 13.0575 32.6194 16.6868C31.3697 20.316 27.4143 22.2451 23.7851 20.9956C20.1558 19.7459 18.2268 15.7905 19.4763 12.1613L19.601 11.8262C20.9283 8.5245 24.5509 6.75764 27.9698 7.74445L28.3106 7.85251Z"/><path fill="#222" d="M36.783 8.126C38.518 11.238 39.442 14.732 38.191 18.366 35.856 25.148 28.465 28.753 21.683 26.418 18.047 25.166 15.859 22.292 14.476 19.006 15.978 21.702 17.906 24.043 21.054 25.127 27.836 27.462 35.227 23.857 37.562 17.076 38.645 13.93 37.98 10.968 36.783 8.126ZM22.819 9.98C20.956 11.242 20.928 14.088 20.928 14.088 20.928 14.088 21.737 11.622 23.097 10.552 24.176 9.703 26.955 9.025 26.955 9.025 26.955 9.025 24.9 8.569 22.819 9.98Z"/></svg>